<svg  viewBox="0 0 371 379" fill="none" xmlns="http://www.w3.org/2000/svg">
<path d="M56.4683 151.167C65.5424 148.142 85.3604 146.812 92.0391 165.686C98.7177 184.56 110.067 186.617 114.906 185.286" stroke="#FF3195" stroke-width="3" stroke-linecap="round"/>
<path d="M260.094 187.388C269.168 184.363 288.986 183.032 295.665 201.907C302.344 220.781 313.693 222.838 318.532 221.507" stroke="#FF3195" stroke-width="3" stroke-linecap="round"/>
<g filter="url(#filter0_d_6601_1137)">
<path d="M178.041 123.308C181.243 119.346 187.282 119.346 190.484 123.308L197.214 131.633C199.203 134.094 202.456 135.151 205.512 134.329L215.85 131.55C220.769 130.227 225.655 133.777 225.917 138.863L226.468 149.554C226.631 152.715 228.641 155.482 231.597 156.613L241.594 160.441C246.351 162.262 248.217 168.006 245.439 172.275L239.601 181.248C237.875 183.901 237.875 187.321 239.601 189.974L245.439 198.947C248.217 203.216 246.351 208.96 241.594 210.781L231.597 214.609C228.641 215.74 226.631 218.508 226.468 221.668L225.917 232.359C225.655 237.445 220.769 240.995 215.85 239.673L205.512 236.893C202.456 236.071 199.203 237.128 197.214 239.589L190.484 247.915C187.282 251.876 181.243 251.876 178.041 247.915L171.311 239.589C169.322 237.128 166.068 236.071 163.012 236.893L152.675 239.673C147.756 240.995 142.87 237.445 142.608 232.359L142.057 221.668C141.894 218.508 139.883 215.74 136.928 214.609L126.931 210.781C122.174 208.96 120.308 203.216 123.086 198.947L128.924 189.974C130.65 187.321 130.65 183.901 128.924 181.248L123.086 172.275C120.308 168.006 122.174 162.262 126.931 160.441L136.928 156.613C139.883 155.482 141.894 152.715 142.057 149.554L142.608 138.863C142.87 133.777 147.756 130.227 152.675 131.55L163.012 134.329C166.068 135.151 169.322 134.094 171.311 131.633L178.041 123.308Z" fill="url(#paint0_linear_6601_1137)"/>
</g>
<path d="M201.717 173.611L177.717 197.611L166.808 186.702" stroke="white" stroke-width="5" stroke-linecap="round" stroke-linejoin="round"/>
<path d="M263.967 116.572C264.281 114.662 267.027 114.662 267.342 116.572L268.315 122.479L274.222 123.452C276.132 123.767 276.132 126.513 274.222 126.827L268.315 127.8L267.342 133.707C267.027 135.617 264.281 135.617 263.967 133.707L262.994 127.8L257.087 126.827C255.177 126.513 255.177 123.767 257.087 123.452L262.994 122.479L263.967 116.572Z" fill="white"/>
<path d="M103.803 228.232C104.101 226.418 106.71 226.418 107.009 228.232L107.933 233.844L113.545 234.768C115.359 235.067 115.359 237.676 113.545 237.974L107.933 238.899L107.009 244.511C106.71 246.325 104.101 246.325 103.803 244.511L102.878 238.899L97.2664 237.974C95.4522 237.676 95.4522 235.067 97.2664 234.768L102.878 233.844L103.803 228.232Z" fill="white"/>
<path d="M98.6898 121.339C98.91 120.002 100.832 120.002 101.052 121.339L101.733 125.474L105.868 126.155C107.205 126.376 107.205 128.298 105.868 128.518L101.733 129.199L101.052 133.334C100.832 134.671 98.91 134.671 98.6898 133.334L98.0087 129.199L93.8737 128.518C92.5369 128.298 92.5369 126.376 93.8737 126.155L98.0087 125.474L98.6898 121.339Z" fill="white"/>
<path d="M273.581 247.874C273.802 246.537 275.724 246.537 275.944 247.874L276.625 252.009L280.76 252.69C282.097 252.91 282.097 254.832 280.76 255.053L276.625 255.734L275.944 259.869C275.724 261.206 273.802 261.206 273.581 259.869L272.9 255.734L268.765 255.053C267.428 254.832 267.428 252.91 268.765 252.69L272.9 252.009L273.581 247.874Z" fill="white"/>
<circle cx="268.089" cy="164.787" r="4" fill="#FF6969"/>
<circle cx="166.808" cy="84.7374" r="4" fill="#FF6969"/>
<circle cx="222.579" cy="292.211" r="4" fill="#FF6969"/>
<circle cx="145.403" cy="267.84" r="2.5" fill="#FF6969"/>
<defs>
<filter id="filter0_d_6601_1137" x="-2.21191" y="0.336731" width="372.949" height="378.549" filterUnits="userSpaceOnUse" color-interpolation-filters="sRGB">
<feFlood flood-opacity="0" result="BackgroundImageFix"/>
<feColorMatrix in="SourceAlpha" type="matrix" values="0 0 0 0 0 0 0 0 0 0 0 0 0 0 0 0 0 0 127 0" result="hardAlpha"/>
<feOffset dy="4"/>
<feGaussianBlur stdDeviation="62"/>
<feComposite in2="hardAlpha" operator="out"/>
<feColorMatrix type="matrix" values="0 0 0 0 0.219608 0 0 0 0 0.937255 0 0 0 0 0.490196 0 0 0 0.5 0"/>
<feBlend mode="normal" in2="BackgroundImageFix" result="effect1_dropShadow_6601_1137"/>
<feBlend mode="normal" in="SourceGraphic" in2="effect1_dropShadow_6601_1137" result="shape"/>
</filter>
<linearGradient id="paint0_linear_6601_1137" x1="121.788" y1="185.611" x2="246.737" y2="185.611" gradientUnits="userSpaceOnUse">
<stop stop-color="#92093D"/>
<stop offset="1" stop-color="#FF3195"/>
</linearGradient>
</defs>
</svg>
