<svg  viewBox="0 0 375 455" fill="none" xmlns="http://www.w3.org/2000/svg">
<rect width="392.073" height="212.611" rx="12" transform="matrix(0.872496 0.488621 -0.707107 0.707107 72.3384 60.0145)" fill="url(#paint0_linear_6601_548)"/>
<path d="M71.5716 88.0677C71.858 88.2936 72.0476 88.5692 72.1405 88.8944C72.2419 89.2244 72.2409 89.5626 72.1372 89.9089C72.0423 90.2601 71.8477 90.5827 71.5535 90.877C71.1822 91.2482 70.7293 91.5191 70.1947 91.6896C69.6671 91.8531 69.091 91.8966 68.4665 91.82C67.8575 91.7413 67.2505 91.5325 66.6455 91.1936L63.2745 89.3058L70.5983 81.9821L73.8396 83.7973C74.4533 84.141 74.8921 84.5179 75.1562 84.928C75.4272 85.3312 75.5307 85.7334 75.4666 86.1346C75.4025 86.5358 75.1953 86.9115 74.8451 87.2618C74.4107 87.6961 73.903 87.9746 73.322 88.0972C72.7565 88.2176 72.1731 88.2078 71.5716 88.0677ZM68.6153 85.8056L70.599 86.9165C71.1522 87.2263 71.6851 87.3608 72.1978 87.3201C72.7105 87.2794 73.1524 87.0734 73.5237 86.7021C73.895 86.3308 74.0344 85.9554 73.9421 85.5758C73.8497 85.1963 73.5183 84.8467 72.9478 84.5273L70.99 83.4309L68.6153 85.8056ZM67.3298 90.3475C67.9176 90.6767 68.4878 90.8211 69.0404 90.7809C69.593 90.7407 70.0689 90.5209 70.4682 90.1216C70.8745 89.7154 71.0204 89.2998 70.9058 88.875C70.7982 88.4432 70.4549 88.0652 69.8758 87.7409L67.8273 86.5936L65.2424 89.1785L67.3298 90.3475ZM73.6851 90.6118C74.2735 90.0234 74.9353 89.5908 75.6705 89.3141C76.4127 89.0303 77.1614 88.9087 77.9165 88.9491C78.6803 88.9944 79.3777 89.1937 80.0087 89.547C80.631 89.8956 81.0626 90.3067 81.3036 90.7804C81.5445 91.2541 81.6128 91.7185 81.5083 92.1736L82.559 91.1228L83.7518 91.7908L77.9937 97.5489L76.8009 96.8809L77.8726 95.8092C77.303 96.0147 76.6728 96.0989 75.9819 96.0616C75.3066 96.0223 74.6621 95.8307 74.0484 95.487C73.4175 95.1337 72.9731 94.6881 72.7153 94.1503C72.4575 93.6126 72.4094 93.0337 72.5708 92.4138C72.7323 91.7939 73.1037 91.1932 73.6851 90.6118ZM79.6904 93.9914C80.1248 93.5571 80.395 93.1183 80.5011 92.675C80.6073 92.2318 80.5586 91.822 80.355 91.4458C80.1671 91.0673 79.8528 90.7547 79.412 90.5078C78.9711 90.261 78.4852 90.1199 77.954 90.0847C77.4229 90.0496 76.8881 90.1326 76.3498 90.3338C75.8115 90.535 75.3252 90.8528 74.8909 91.2871C74.4496 91.7284 74.1723 92.1742 74.0592 92.6244C73.953 93.0677 73.9939 93.4785 74.1818 93.8569C74.3767 94.2284 74.6946 94.5375 75.1354 94.7844C75.5762 95.0313 76.0622 95.1723 76.5933 95.2075C77.1401 95.2405 77.6827 95.1564 78.221 94.9552C78.7663 94.7469 79.2561 94.4257 79.6904 93.9914ZM88.9429 91.5507L81.1673 99.3263L79.9875 98.6655L87.7631 90.89L88.9429 91.5507ZM85.6374 97.3054C86.2258 96.717 86.8876 96.2844 87.6228 96.0077C88.365 95.7239 89.1137 95.6023 89.8688 95.6427C90.6326 95.688 91.33 95.8873 91.961 96.2406C92.5833 96.5892 93.0149 97.0003 93.2559 97.474C93.4968 97.9477 93.565 98.4121 93.4605 98.8672L94.5113 97.8164L95.7041 98.4844L89.946 104.243L88.7532 103.575L89.8249 102.503C89.2553 102.708 88.6251 102.792 87.9342 102.755C87.2589 102.716 86.6144 102.524 86.0007 102.181C85.3698 101.827 84.9254 101.382 84.6676 100.844C84.4098 100.306 84.3617 99.7273 84.5231 99.1074C84.6845 98.4875 85.056 97.8868 85.6374 97.3054ZM91.6427 100.685C92.0771 100.251 92.3473 99.8119 92.4534 99.3686C92.5596 98.9254 92.5109 98.5156 92.3073 98.1394C92.1194 97.7609 91.8051 97.4483 91.3642 97.2014C90.9234 96.9546 90.4374 96.8135 89.9063 96.7783C89.3752 96.7432 88.8404 96.8262 88.3021 97.0274C87.7638 97.2286 87.2775 97.5464 86.8432 97.9807C86.4018 98.422 86.1246 98.8678 86.0115 99.318C85.9053 99.7613 85.9462 100.172 86.1341 100.551C86.329 100.922 86.6469 101.231 87.0877 101.478C87.5285 101.725 88.0145 101.866 88.5456 101.901C89.0924 101.934 89.635 101.85 90.1733 101.649C90.7186 101.441 91.2084 101.119 91.6427 100.685ZM101.265 101.435C102.129 101.919 102.615 102.524 102.724 103.252C102.84 103.972 102.498 104.732 101.7 105.53L98.3057 108.924L97.1388 108.271L100.396 105.013C100.971 104.439 101.231 103.902 101.178 103.402C101.132 102.896 100.802 102.47 100.188 102.127C99.5659 101.778 98.9113 101.657 98.2244 101.765C97.5462 101.876 96.9058 102.234 96.3034 102.836L93.1196 106.02L91.9398 105.359L97.6979 99.601L98.8777 100.262L98.0581 101.081C98.5857 100.918 99.1289 100.867 99.6876 100.928C100.255 100.995 100.781 101.164 101.265 101.435ZM102.682 106.867C103.277 106.272 103.942 105.836 104.678 105.559C105.42 105.275 106.173 105.156 106.937 105.201C107.709 105.251 108.432 105.465 109.107 105.843C109.98 106.332 110.525 106.905 110.744 107.563C110.971 108.226 110.871 108.912 110.443 109.624L109.172 108.912C109.401 108.494 109.44 108.084 109.289 107.682C109.147 107.286 108.816 106.942 108.297 106.652C107.623 106.274 106.89 106.158 106.096 106.304C105.31 106.443 104.574 106.856 103.887 107.542C103.194 108.236 102.866 108.888 102.902 109.499C102.939 110.109 103.294 110.603 103.968 110.981C104.487 111.271 105.017 111.415 105.559 111.413C106.101 111.41 106.619 111.263 107.113 110.971L108.383 111.683C107.605 112.165 106.752 112.425 105.824 112.463C104.903 112.493 104.015 112.269 103.159 111.79C102.485 111.412 102.007 110.953 101.725 110.413C101.451 109.877 101.392 109.303 101.546 108.69C101.701 108.077 102.079 107.47 102.682 106.867ZM117.691 114.945C117.508 115.127 117.303 115.312 117.074 115.501L111.395 112.321C110.871 112.912 110.664 113.49 110.774 114.054C110.899 114.616 111.273 115.072 111.896 115.42C112.406 115.706 112.924 115.848 113.45 115.848C113.992 115.846 114.493 115.722 114.953 115.477L116.224 116.189C115.48 116.636 114.648 116.874 113.728 116.905C112.814 116.929 111.934 116.704 111.086 116.229C110.412 115.852 109.93 115.39 109.639 114.845C109.357 114.305 109.289 113.725 109.435 113.108C109.587 112.483 109.962 111.873 110.557 111.277C111.152 110.682 111.821 110.242 112.563 109.959C113.306 109.675 114.059 109.562 114.825 109.619C115.606 109.674 116.342 109.895 117.034 110.282C117.708 110.66 118.185 111.113 118.466 111.641C118.746 112.17 118.814 112.722 118.671 113.297C118.543 113.87 118.216 114.419 117.691 114.945ZM116.672 114.062C117.036 113.698 117.248 113.331 117.308 112.96C117.376 112.583 117.303 112.231 117.091 111.904C116.894 111.575 116.588 111.294 116.173 111.062C115.576 110.728 114.912 110.597 114.181 110.668C113.457 110.744 112.792 111.038 112.186 111.55L116.672 114.062Z" fill="white"/>
<path d="M43.2793 122.832L45.2127 120.899C49.8212 123.087 53.5115 122.268 55.487 120.293C57.5464 118.233 57.1169 115.993 54.1466 113.543L50.5084 110.587C48.8172 109.083 48.3348 108.19 49.5537 106.971C50.8146 105.71 52.6897 105.777 55.8532 107.548C59.4575 109.567 59.8665 111.14 58.1433 112.863L57.8701 113.136L60.6446 114.69L60.7707 114.564C63.2505 112.084 63.2959 109.126 59.608 106.504L61.5624 104.549L58.9693 103.097L57.036 105.031C52.22 102.727 48.5185 103.637 46.6271 105.529C44.3154 107.84 45.2971 110.095 47.8069 112.156L51.4921 115.105C53.3599 116.676 53.7793 117.632 52.5604 118.851C51.2364 120.175 49.4811 120.109 46.162 118.251C42.3503 116.116 41.9722 114.593 43.6534 112.912L43.9896 112.575L41.1891 111.007L41.063 111.133C38.3941 113.802 38.7551 116.758 42.6406 119.426L40.6862 121.38L43.2793 122.832ZM65.1 132.102C69.8452 134.76 74.1946 134.9 76.8635 132.231C78.8179 130.277 78.4487 128.3 76.2907 126.534L76.4588 126.366C78.9831 127.321 81.2848 126.839 82.8819 125.242C85.2776 122.846 84.0863 120.114 79.6522 117.631C74.2587 114.61 69.7099 115.276 66.9569 118.029L66.7678 118.218L69.7239 119.873L69.871 119.726C71.7203 117.877 73.7228 117.654 77.2753 119.644C80.6463 121.531 81.032 122.764 79.666 124.13C78.4051 125.391 76.6856 125.411 74.5852 124.235L70.1252 121.737L68.2339 123.628L73.0828 126.344C75.261 127.564 75.8023 128.883 74.3733 130.312C72.7131 131.973 70.7441 131.919 67.1398 129.9C63.3021 127.751 63.2302 126.367 65.0795 124.517L65.3737 124.223L62.4177 122.568L62.0814 122.904C59.2234 125.762 59.6546 129.052 65.1 132.102ZM87.9828 144.589L90.8409 141.731L93.8228 143.401L95.8613 141.363L92.8793 139.693L102.063 130.509L98.8216 128.694L78.5442 132.386L76.9681 133.962L88.0663 140.177L85.2083 143.035L87.9828 144.589ZM82.8702 134.087L83.0383 133.919L96.433 131.487L96.6404 131.603L90.1048 138.139L82.8702 134.087ZM90.9041 149.897C92.5118 150.797 94.0758 150.69 95.3787 149.387L99.0563 145.709L95.5298 143.734L92.2725 146.992L93.8283 147.863L93.387 148.304C92.9457 148.745 92.6541 148.713 92.2133 148.466L91.3576 147.987L89.9706 149.374L90.9041 149.897ZM104.983 154.438C109.728 157.095 114.078 157.236 116.747 154.567C118.701 152.613 118.332 150.636 116.174 148.87L116.342 148.702C118.866 149.656 121.168 149.175 122.765 147.578C125.161 145.182 123.969 142.45 119.535 139.966C114.142 136.946 109.593 137.611 106.84 140.364L106.651 140.553L109.607 142.209L109.754 142.062C111.603 140.212 113.606 139.99 117.158 141.979C120.529 143.867 120.915 145.099 119.549 146.465C118.288 147.726 116.569 147.747 114.468 146.57L110.008 144.073L108.117 145.964L112.966 148.68C115.144 149.9 115.685 151.219 114.256 152.648C112.596 154.308 110.627 154.255 107.023 152.236C103.185 150.087 103.113 148.702 104.963 146.853L105.257 146.559L102.301 144.903L101.965 145.24C99.1066 148.098 99.5378 151.388 104.983 154.438ZM120.636 162.909C126.205 157.34 131.669 155.679 140.351 154.804L142.179 152.975L127.814 144.93L125.776 146.969L137.159 153.344L136.991 153.512C131.211 153.75 124.008 154.601 117.473 161.137L120.636 162.909ZM136.585 172.135C141.434 174.851 145.869 175.27 148.601 172.538C150.535 170.604 150.135 168.577 147.879 166.626L148.047 166.457C150.779 167.528 153.257 167.113 154.875 165.495C157.082 163.288 156.012 160.394 151.085 157.635C146.158 154.876 142.146 154.924 139.939 157.13C138.321 158.748 138.514 160.659 140.605 162.29L140.437 162.458C137.429 161.461 134.613 161.688 132.68 163.621C129.948 166.353 131.684 169.391 136.585 172.135ZM144.886 163.834C141.541 161.961 140.87 160.569 142.236 159.203C143.538 157.9 145.337 157.76 148.941 159.778C152.572 161.812 152.899 163.142 151.596 164.445C150.23 165.811 148.256 165.722 144.886 163.834ZM138.728 169.992C134.942 167.872 134.287 166.423 135.927 164.784C137.461 163.25 139.571 163.284 143.33 165.39C147.09 167.495 147.729 169 146.195 170.534C144.556 172.174 142.488 172.097 138.728 169.992ZM144.74 180.047C146.348 180.947 147.912 180.839 149.215 179.536L152.892 175.859L149.366 173.884L146.108 177.141L147.664 178.012L147.223 178.454C146.782 178.895 146.49 178.863 146.049 178.616L145.194 178.137L143.807 179.524L144.74 180.047ZM164.812 187.615L167.67 184.757L170.652 186.427L172.69 184.389L169.708 182.719L178.892 173.535L175.651 171.72L155.373 175.412L153.797 176.988L164.895 183.204L162.037 186.062L164.812 187.615ZM159.699 177.114L159.867 176.945L173.262 174.513L173.469 174.629L166.934 181.165L159.699 177.114ZM182.715 197.642L185.573 194.784L188.555 196.454L190.593 194.415L187.611 192.745L196.795 183.562L193.554 181.746L173.276 185.438L171.7 187.015L182.798 193.23L179.94 196.088L182.715 197.642ZM177.602 187.14L177.77 186.972L191.165 184.539L191.372 184.656L184.837 191.191L177.602 187.14Z" fill="white"/>
<path d="M-19.1288 182.793L-20.3087 182.133L-19.2223 173.643L-25.0539 179.475L-26.2338 178.814L-18.8995 171.48L-17.7197 172.141L-18.7956 180.619L-12.9744 174.798L-11.7946 175.459L-19.1288 182.793ZM-5.0584 181.69L-10.8165 187.448L-11.9964 186.788L-11.1453 185.937C-11.6642 186.105 -12.2108 186.159 -12.7852 186.1C-13.3439 186.038 -13.8653 185.872 -14.3493 185.601C-14.9025 185.291 -15.3084 184.922 -15.5671 184.493C-15.8188 184.057 -15.8887 183.581 -15.7767 183.064C-15.6561 182.552 -15.3296 182.03 -14.7972 181.498L-11.4243 178.125L-10.2574 178.779L-13.5043 182.025C-14.0717 182.593 -14.3323 183.13 -14.2861 183.637C-14.233 184.136 -13.8995 184.558 -13.2859 184.902C-12.6549 185.255 -12.0003 185.376 -11.322 185.264C-10.6438 185.152 -10.0034 184.795 -9.401 184.192L-6.23824 181.03L-5.0584 181.69ZM5.58282 187.486C6.136 187.795 6.53411 188.166 6.77715 188.597C7.02719 189.021 7.09191 189.489 6.97131 190.001C6.8507 190.512 6.52421 191.034 5.99183 191.567L2.59789 194.961L1.43102 194.307L4.68836 191.05C5.26277 190.476 5.52339 189.939 5.47023 189.439C5.43271 188.937 5.11575 188.519 4.51935 188.185C3.90567 187.841 3.25619 187.729 2.57094 187.848C1.89269 187.96 1.25235 188.317 0.649913 188.919L-2.52336 192.093L-3.69023 191.439L-0.432894 188.182C0.141518 187.608 0.40214 187.071 0.348974 186.571C0.311457 186.069 -0.00550186 185.651 -0.601901 185.317C-1.21559 184.973 -1.86506 184.861 -2.55031 184.98C-3.22857 185.092 -3.86891 185.449 -4.47134 186.051L-7.64461 189.225L-8.82445 188.564L-3.06632 182.806L-1.88649 183.467L-2.71658 184.297C-2.18199 184.126 -1.63966 184.069 -1.08959 184.126C-0.530876 184.188 -0.0138231 184.351 0.461567 184.618C1.05797 184.952 1.47664 185.356 1.71759 185.829C1.95854 186.303 1.98122 186.813 1.78565 187.359C2.39074 187.064 3.03442 186.933 3.71669 186.965C4.39895 186.998 5.021 187.171 5.58282 187.486ZM10.3994 192.019C10.9847 191.811 11.6193 191.73 12.3032 191.774C12.9871 191.818 13.6272 192.007 14.2236 192.341C14.8633 192.699 15.3155 193.144 15.5803 193.675C15.845 194.205 15.9002 194.777 15.7458 195.39C15.5983 195.996 15.2304 196.593 14.642 197.182C14.0606 197.763 13.3953 198.199 12.6461 198.49C11.8968 198.781 11.1368 198.907 10.3661 198.869C9.60392 198.835 8.90736 198.642 8.27638 198.288C7.6627 197.945 7.23106 197.534 6.98147 197.055C6.74052 196.581 6.67148 196.111 6.77435 195.644L5.71309 196.705L4.53325 196.045L12.3088 188.269L13.4887 188.93L10.3994 192.019ZM13.4362 196.506C13.8705 196.072 14.1408 195.633 14.2469 195.19C14.353 194.747 14.3043 194.337 14.1008 193.961C13.9059 193.589 13.588 193.28 13.1472 193.033C12.715 192.791 12.2256 192.654 11.6788 192.621C11.1476 192.586 10.6051 192.67 10.0511 192.873C9.51277 193.074 9.02996 193.389 8.60266 193.816C8.16835 194.25 7.89462 194.692 7.78147 195.143C7.68396 195.591 7.72916 196.004 7.91706 196.382C8.12061 196.759 8.43847 197.068 8.87065 197.31C9.31146 197.557 9.79745 197.698 10.3286 197.733C10.8754 197.766 11.4179 197.682 11.9563 197.481C12.5016 197.272 12.9949 196.948 13.4362 196.506ZM22.8772 201.482C22.6951 201.664 22.4895 201.85 22.2604 202.038L16.5816 198.858C16.0575 199.45 15.8503 200.028 15.9603 200.592C16.0859 201.154 16.4598 201.609 17.0822 201.958C17.5921 202.243 18.1102 202.386 18.6364 202.386C19.1783 202.383 19.6795 202.259 20.1401 202.015L21.4106 202.726C20.6671 203.173 19.835 203.412 18.9142 203.443C18.0005 203.466 17.1201 203.241 16.2731 202.767C15.5989 202.389 15.1164 201.928 14.8257 201.383C14.5436 200.842 14.4755 200.263 14.6213 199.645C14.7741 199.02 15.1482 198.41 15.7436 197.815C16.3391 197.22 17.0079 196.78 17.7501 196.496C18.4923 196.212 19.2461 196.099 20.0115 196.156C20.7926 196.211 21.5289 196.432 22.2203 196.82C22.8945 197.197 23.3718 197.65 23.6523 198.179C23.9327 198.707 24.0011 199.259 23.8574 199.835C23.7293 200.408 23.4026 200.957 22.8772 201.482ZM21.8581 200.6C22.2224 200.236 22.4347 199.868 22.4951 199.498C22.5625 199.12 22.4899 198.768 22.2772 198.441C22.0802 198.113 21.7743 197.832 21.3594 197.6C20.763 197.266 20.0989 197.134 19.3672 197.205C18.6441 197.281 17.9791 197.575 17.3722 198.088L21.8581 200.6ZM27.3376 201.292C27.8743 201.079 28.4239 200.988 28.9863 201.018C29.5574 201.054 30.1195 201.227 30.6727 201.537L29.685 202.524L29.3738 202.35C28.0514 201.61 26.8087 201.821 25.6459 202.983L22.5147 206.115L21.3348 205.454L27.093 199.696L28.2728 200.357L27.3376 201.292Z" fill="white"/>
<path d="M-37.6476 189.978C-36.8884 189.32 -36.0148 188.962 -35.0268 188.903C-34.0387 188.845 -33.07 189.081 -32.1206 189.613C-31.4876 189.968 -31.0373 190.367 -30.7698 190.811C-30.4855 191.252 -30.3854 191.697 -30.4695 192.144C-30.5443 192.596 -30.7816 193.023 -31.1815 193.422C-31.6492 193.89 -32.2203 194.2 -32.8949 194.352C-33.5602 194.509 -34.2071 194.488 -34.8358 194.289L-34.8923 194.345C-34.408 194.805 -34.1663 195.311 -34.1671 195.863C-34.168 196.416 -34.455 196.979 -35.0284 197.552C-35.4584 197.982 -35.9679 198.303 -36.5569 198.515C-37.1384 198.719 -37.7693 198.783 -38.4494 198.708C-39.1296 198.633 -39.8094 198.406 -40.489 198.025C-41.4756 197.472 -42.078 196.811 -42.2961 196.042C-42.5066 195.265 -42.2643 194.471 -41.5693 193.66L-40.3406 194.348C-40.7281 194.837 -40.8697 195.334 -40.7654 195.84C-40.6611 196.346 -40.2832 196.781 -39.6316 197.146C-38.98 197.511 -38.3509 197.651 -37.7442 197.567C-37.1207 197.481 -36.5901 197.219 -36.1526 196.782C-35.5868 196.216 -35.4121 195.678 -35.6286 195.169C-35.8451 194.659 -36.4234 194.141 -37.3635 193.614L-37.6847 193.435L-36.8247 192.575L-36.4896 192.762C-35.6256 193.234 -34.8656 193.483 -34.2093 193.51C-33.5455 193.528 -32.9797 193.304 -32.512 192.836C-32.1122 192.436 -31.9545 192.024 -32.0388 191.601C-32.1139 191.182 -32.4493 190.806 -33.0451 190.472C-33.6222 190.149 -34.2083 190.009 -34.8034 190.052C-35.3985 190.096 -35.9324 190.303 -36.4049 190.674L-37.6476 189.978ZM-21.7953 197.037L-26.6962 194.293L-29.2762 196.873C-28.8207 196.751 -28.308 196.732 -27.7383 196.816C-27.161 196.892 -26.6303 197.066 -26.1463 197.337C-25.3737 197.769 -24.8774 198.253 -24.6574 198.788C-24.4299 199.316 -24.4212 199.845 -24.6313 200.374C-24.8246 200.901 -25.1513 201.395 -25.6115 201.855C-26.1546 202.398 -26.7669 202.815 -27.4482 203.104C-28.1295 203.393 -28.8553 203.516 -29.6255 203.473C-30.3864 203.436 -31.1485 203.203 -31.9118 202.775C-32.8892 202.228 -33.4767 201.581 -33.6744 200.835C-33.872 200.089 -33.6966 199.34 -33.1479 198.588L-31.9053 199.284C-32.2143 199.782 -32.294 200.261 -32.1444 200.721C-31.9949 201.181 -31.6223 201.578 -31.0265 201.912C-30.2912 202.324 -29.56 202.457 -28.8331 202.311C-28.0987 202.157 -27.4373 201.786 -26.8488 201.198C-26.2604 200.609 -25.994 200.052 -26.0494 199.527C-26.0974 198.994 -26.4844 198.524 -27.2104 198.118C-27.7038 197.841 -28.2347 197.697 -28.8032 197.685C-29.3548 197.67 -29.8803 197.782 -30.3798 198.02L-31.5806 197.347L-26.9638 192.73L-20.8901 196.132L-21.7953 197.037ZM-13.0278 201.947L-17.9287 199.203L-20.5087 201.783C-20.0532 201.661 -19.5406 201.642 -18.9708 201.726C-18.3935 201.802 -17.8629 201.976 -17.3788 202.247C-16.6062 202.679 -16.1099 203.163 -15.8899 203.698C-15.6624 204.226 -15.6537 204.755 -15.8638 205.284C-16.0571 205.811 -16.3838 206.305 -16.844 206.765C-17.3871 207.308 -17.9994 207.725 -18.6807 208.014C-19.362 208.303 -20.0878 208.426 -20.858 208.383C-21.6189 208.346 -22.381 208.113 -23.1443 207.685C-24.1217 207.138 -24.7092 206.491 -24.9069 205.745C-25.1046 204.999 -24.9291 204.25 -24.3805 203.498L-23.1378 204.194C-23.4468 204.692 -23.5265 205.171 -23.377 205.631C-23.2274 206.091 -22.8548 206.488 -22.259 206.822C-21.5237 207.234 -20.7925 207.367 -20.0657 207.221C-19.3312 207.067 -18.6698 206.696 -18.0814 206.108C-17.4929 205.519 -17.2265 204.962 -17.282 204.437C-17.3299 203.904 -17.7169 203.434 -18.443 203.028C-18.9363 202.751 -19.4672 202.607 -20.0357 202.595C-20.5873 202.58 -21.1129 202.692 -21.6123 202.93L-22.8131 202.257L-18.1963 197.64L-12.1226 201.042L-13.0278 201.947ZM-16.4698 208.546L-15.689 207.765L-5.28867 205.01L-3.76676 205.863L-9.15308 211.249L-7.75683 212.031L-8.65078 212.925L-10.047 212.143L-11.8689 213.965L-13.1255 213.261L-11.3037 211.439L-16.4698 208.546ZM-6.04254 206.265L-14.1098 208.473L-10.3539 210.576L-6.04254 206.265ZM8.11031 213.644L-3.14917 218.848L-4.43372 218.129L6.77977 213.058L1.39023 210.039L2.27287 209.157L8.8911 212.863L8.11031 213.644ZM14.0031 218.727C14.6357 217.775 14.4168 216.999 13.3463 216.4C12.5179 215.936 11.6386 215.849 10.7085 216.14C9.78594 216.424 8.73713 217.161 7.56205 218.35C8.16842 218.078 8.82766 217.97 9.53978 218.028C10.2687 218.083 10.9404 218.283 11.5548 218.627C12.5135 219.164 13.0354 219.833 13.1204 220.633C13.2147 221.439 12.8356 222.269 11.9832 223.121C11.4702 223.634 10.8844 224.024 10.2257 224.291C9.57628 224.562 8.87955 224.678 8.1355 224.638C7.40075 224.603 6.67966 224.388 5.97223 223.992C5.01347 223.455 4.43766 222.861 4.24479 222.212C4.05192 221.563 4.15397 220.873 4.55093 220.142C4.94789 219.411 5.59524 218.596 6.49296 217.699C9.26156 214.93 11.8373 214.213 14.2203 215.547C15.1325 216.058 15.6493 216.66 15.7708 217.351C15.8922 218.043 15.6939 218.721 15.176 219.384L14.0031 218.727ZM10.4182 219.35C10.0179 219.125 9.57301 218.982 9.0835 218.92C8.60154 218.85 8.11307 218.888 7.61809 219.035C7.13996 219.179 6.70853 219.443 6.32379 219.828C5.75046 220.401 5.48752 220.984 5.53498 221.575C5.58999 222.159 5.99913 222.665 6.76242 223.092C7.414 223.457 8.09281 223.584 8.79884 223.474C9.52172 223.361 10.1623 223.025 10.7205 222.467C11.3089 221.879 11.583 221.314 11.5426 220.774C11.5097 220.226 11.1349 219.751 10.4182 219.35ZM17.0981 220.637C17.8572 219.979 18.7309 219.621 19.7189 219.562C20.7069 219.504 21.6756 219.74 22.6251 220.272C23.258 220.627 23.7083 221.026 23.9758 221.47C24.2602 221.912 24.3603 222.356 24.2761 222.803C24.2013 223.255 23.964 223.682 23.5642 224.081C23.0964 224.549 22.5253 224.859 21.8507 225.011C21.1855 225.168 20.5385 225.147 19.9098 224.948L19.8533 225.004C20.3376 225.464 20.5794 225.97 20.5785 226.523C20.5777 227.075 20.2906 227.638 19.7172 228.211C19.2872 228.641 18.7777 228.962 18.1887 229.174C17.6072 229.378 16.9764 229.442 16.2962 229.367C15.616 229.292 14.9362 229.065 14.2567 228.684C13.27 228.131 12.6676 227.47 12.4496 226.701C12.239 225.924 12.4813 225.13 13.1763 224.319L14.405 225.007C14.0175 225.496 13.8759 225.993 13.9802 226.499C14.0845 227.005 14.4624 227.44 15.114 227.805C15.7656 228.17 16.3947 228.31 17.0014 228.226C17.625 228.14 18.1555 227.878 18.593 227.441C19.1588 226.875 19.3335 226.337 19.117 225.828C18.9005 225.318 18.3222 224.8 17.3821 224.273L17.061 224.094L17.921 223.234L18.2561 223.421C19.12 223.893 19.8801 224.142 20.5363 224.169C21.2001 224.187 21.7659 223.963 22.2336 223.495C22.6334 223.095 22.7912 222.683 22.7068 222.26C22.6317 221.841 22.2963 221.465 21.7005 221.131C21.1234 220.808 20.5373 220.668 19.9422 220.711C19.3471 220.755 18.8132 220.962 18.3407 221.333L17.0981 220.637ZM20.7409 229.385L21.5217 228.604L31.922 225.849L33.4439 226.702L28.0576 232.088L29.4538 232.87L28.5599 233.764L27.1636 232.982L25.3418 234.804L24.0852 234.1L25.907 232.278L20.7409 229.385ZM31.1681 227.104L23.1009 229.312L26.8568 231.415L31.1681 227.104ZM32.4022 237.469C34.3538 237.362 35.9099 237.25 37.0705 237.135C38.2386 237.013 39.3185 236.811 40.3102 236.531C41.3188 236.249 42.0834 235.847 42.6039 235.327C43.0942 234.836 43.33 234.368 43.3113 233.922C43.3094 233.474 42.9827 233.067 42.3311 232.703C41.6981 232.348 41.0426 232.234 40.3645 232.36C39.7032 232.484 39.0908 232.806 38.5273 233.326L37.2986 232.638C38.1807 231.814 39.1498 231.339 40.2057 231.212C41.2616 231.086 42.2596 231.286 43.1997 231.812C44.1585 232.349 44.7021 232.989 44.8306 233.732C44.9684 234.48 44.6602 235.231 43.9058 235.985C43.2796 236.611 42.4359 237.092 41.3745 237.427C40.33 237.76 39.2882 237.989 38.2491 238.113C37.2176 238.23 35.9477 238.331 34.4396 238.416L39.2427 241.106L38.3827 241.966L31.6667 238.205L32.4022 237.469ZM51.6228 239.795C52.2554 238.843 52.0365 238.067 50.966 237.468C50.1376 237.004 49.2583 236.917 48.3282 237.209C47.4057 237.492 46.3568 238.229 45.1818 239.418C45.7881 239.146 46.4474 239.039 47.1595 239.096C47.8885 239.151 48.5601 239.351 49.1745 239.695C50.1332 240.232 50.6551 240.901 50.7401 241.701C50.8344 242.507 50.4553 243.337 49.6029 244.189C49.0899 244.702 48.5041 245.092 47.8454 245.359C47.196 245.63 46.4993 245.746 45.7552 245.706C45.0205 245.671 44.2994 245.456 43.5919 245.06C42.6332 244.523 42.0574 243.93 41.8645 243.28C41.6716 242.631 41.7737 241.941 42.1706 241.21C42.5676 240.479 43.215 239.664 44.1127 238.767C46.8813 235.998 49.457 235.281 51.84 236.616C52.7522 237.126 53.269 237.728 53.3905 238.419C53.5119 239.111 53.3136 239.789 52.7957 240.452L51.6228 239.795ZM48.0379 240.418C47.6376 240.193 47.1927 240.05 46.7032 239.988C46.2213 239.918 45.7328 239.956 45.2378 240.103C44.7597 240.247 44.3282 240.511 43.9435 240.896C43.3702 241.47 43.1072 242.052 43.1547 242.643C43.2097 243.227 43.6188 243.733 44.3821 244.16C45.0337 244.525 45.7125 244.653 46.4186 244.542C47.1414 244.429 47.782 244.093 48.3402 243.535C48.9287 242.947 49.2027 242.382 49.1623 241.842C49.1294 241.294 48.7546 240.819 48.0379 240.418ZM50.1385 245.848L50.9193 245.068L61.3196 242.313L62.8415 243.165L57.4552 248.551L58.8515 249.333L57.9575 250.227L56.5613 249.445L54.7394 251.267L53.4828 250.563L55.3046 248.742L50.1385 245.848ZM60.5658 243.568L52.4985 245.776L56.2544 247.879L60.5658 243.568ZM70.9962 248.862L59.7367 254.066L58.4522 253.346L69.6656 248.275L64.2761 245.257L65.1587 244.374L71.777 248.081L70.9962 248.862ZM72.925 254.938C74.2226 253.64 75.4941 252.775 76.7396 252.343C77.9926 251.903 79.2707 252.048 80.5739 252.778C81.8677 253.502 82.4094 254.377 82.1989 255.4C81.996 256.416 81.2457 257.573 79.9482 258.871C78.628 260.191 77.3414 261.071 76.0884 261.511C74.8354 261.951 73.5619 261.808 72.2681 261.084C70.9649 260.354 70.4186 259.477 70.629 258.453C70.8395 257.43 71.6049 256.258 72.925 254.938ZM78.6916 258.167C79.3479 257.511 79.8465 256.925 80.1874 256.41C80.5452 255.892 80.6961 255.4 80.6402 254.933C80.5935 254.472 80.2583 254.066 79.6347 253.717C79.0017 253.363 78.3781 253.231 77.7639 253.323C77.159 253.419 76.5706 253.666 75.9987 254.064C75.4437 254.459 74.838 254.985 74.1817 255.641C73.5027 256.32 72.9844 256.919 72.6266 257.436C72.2781 257.959 72.1272 258.451 72.1739 258.913C72.2298 259.379 72.5743 259.79 73.2073 260.144C73.8309 260.494 74.4452 260.62 75.0501 260.523C75.6644 260.432 76.2528 260.185 76.8153 259.782C77.3872 259.384 78.0126 258.846 78.6916 258.167ZM78.1895 263.111C80.1411 263.004 81.6972 262.893 82.8577 262.777C84.0258 262.655 85.1058 262.454 86.0975 262.173C87.1061 261.891 87.8706 261.489 88.3911 260.969C88.8815 260.478 89.1173 260.01 89.0985 259.564C89.0966 259.116 88.7699 258.71 88.1183 258.345C87.4854 257.99 86.8298 257.876 86.1517 258.002C85.4905 258.126 84.8781 258.448 84.3145 258.968L83.0858 258.28C83.968 257.456 84.937 256.981 85.9929 256.854C87.0488 256.728 88.0469 256.928 88.987 257.454C89.9458 257.991 90.4894 258.631 90.6179 259.374C90.7557 260.122 90.4474 260.873 89.693 261.627C89.0669 262.253 88.2231 262.734 87.1617 263.069C86.1172 263.402 85.0754 263.631 84.0364 263.755C83.0048 263.872 81.735 263.973 80.2268 264.058L85.0299 266.748L84.1699 267.608L77.4539 263.847L78.1895 263.111ZM91.6421 262.383C92.4013 261.726 93.2749 261.368 94.2629 261.309C95.2509 261.25 96.2197 261.487 97.1691 262.019C97.8021 262.373 98.2523 262.772 98.5198 263.216C98.8042 263.658 98.9043 264.103 98.8202 264.55C98.7453 265.002 98.508 265.428 98.1082 265.828C97.6405 266.296 97.0693 266.606 96.3948 266.757C95.7295 266.914 95.0825 266.893 94.4539 266.694L94.3973 266.751C94.8816 267.21 95.1234 267.717 95.1226 268.269C95.1217 268.822 94.8346 269.385 94.2613 269.958C93.8313 270.388 93.3218 270.709 92.7327 270.92C92.1512 271.124 91.5204 271.189 90.8402 271.114C90.1601 271.039 89.4802 270.811 88.8007 270.431C87.814 269.878 87.2117 269.217 86.9936 268.448C86.7831 267.671 87.0253 266.877 87.7203 266.066L88.949 266.754C88.5616 267.243 88.42 267.74 88.5243 268.246C88.6285 268.751 89.0065 269.187 89.6581 269.552C90.3096 269.916 90.9388 270.057 91.5455 269.973C92.169 269.887 92.6995 269.625 93.1371 269.187C93.7029 268.622 93.8775 268.084 93.6611 267.574C93.4446 267.065 92.8663 266.547 91.9261 266.02L91.605 265.84L92.465 264.98L92.8001 265.168C93.664 265.64 94.4241 265.889 95.0804 265.915C95.7442 265.934 96.3099 265.71 96.7777 265.242C97.1775 264.842 97.3352 264.43 97.2508 264.006C97.1757 263.588 96.8403 263.212 96.2446 262.878C95.6675 262.555 95.0813 262.415 94.4862 262.458C93.8911 262.501 93.3573 262.708 92.8848 263.079L91.6421 262.383ZM107.361 269.227L96.102 274.431L94.8174 273.712L106.031 268.641L100.641 265.623L101.524 264.74L108.142 268.446L107.361 269.227Z" fill="white"/>
<path d="M260.743 329.317L258.294 331.765L261.588 333.609L260.8 334.397L257.506 332.553L254.985 335.075L258.667 337.137L257.879 337.925L253.017 335.202L260.351 327.868L265.213 330.591L264.425 331.379L260.743 329.317ZM263.372 341.001L263.83 337.914L260.066 339.15L258.834 338.46L263.987 336.887L264.592 332.702L265.928 333.45L265.48 336.527L269.221 335.294L270.453 335.984L265.323 337.553L264.707 341.749L263.372 341.001ZM271.745 338.363C272.307 338.164 272.926 338.085 273.601 338.124C274.292 338.161 274.945 338.352 275.558 338.696C276.189 339.049 276.637 339.491 276.902 340.022C277.175 340.557 277.235 341.132 277.08 341.745C276.933 342.35 276.565 342.948 275.977 343.536C275.395 344.117 274.73 344.554 273.981 344.844C273.232 345.135 272.472 345.261 271.701 345.223C270.939 345.19 270.242 344.996 269.611 344.643C269.006 344.304 268.579 343.895 268.329 343.417C268.095 342.936 268.022 342.463 268.109 341.999L264.316 345.792L263.136 345.131L271.626 336.641L272.806 337.302L271.745 338.363ZM274.771 342.861C275.205 342.426 275.475 341.988 275.582 341.544C275.688 341.101 275.639 340.691 275.436 340.315C275.241 339.944 274.923 339.635 274.482 339.388C274.05 339.146 273.56 339.008 273.013 338.975C272.482 338.94 271.94 339.024 271.386 339.227C270.847 339.429 270.365 339.743 269.937 340.17C269.503 340.605 269.229 341.047 269.116 341.497C269.019 341.945 269.064 342.358 269.252 342.737C269.455 343.113 269.773 343.422 270.205 343.664C270.646 343.911 271.132 344.052 271.663 344.087C272.21 344.12 272.753 344.036 273.291 343.835C273.836 343.627 274.33 343.302 274.771 342.861Z" fill="white"/>
<path d="M236.181 351.591C238.133 351.483 239.689 351.372 240.85 351.257C242.018 351.135 243.098 350.933 244.089 350.653C245.098 350.371 245.863 349.969 246.383 349.449C246.873 348.958 247.109 348.49 247.091 348.044C247.089 347.596 246.762 347.189 246.11 346.824C245.477 346.47 244.822 346.356 244.144 346.482C243.482 346.606 242.87 346.928 242.307 347.448L241.078 346.76C241.96 345.936 242.929 345.461 243.985 345.334C245.041 345.207 246.039 345.407 246.979 345.934C247.938 346.471 248.481 347.111 248.61 347.853C248.748 348.601 248.439 349.353 247.685 350.107C247.059 350.733 246.215 351.214 245.154 351.549C244.109 351.882 243.067 352.111 242.028 352.235C240.997 352.352 239.727 352.453 238.219 352.538L243.022 355.228L242.162 356.088L235.446 352.326L236.181 351.591ZM245.055 355.007L245.836 354.226L256.236 351.471L257.758 352.323L252.372 357.71L253.768 358.492L252.874 359.386L251.478 358.604L249.656 360.426L248.399 359.722L250.221 357.9L245.055 355.007ZM255.482 352.726L247.415 354.934L251.171 357.037L255.482 352.726ZM267.937 354.035L251.529 364.475L250.272 363.772L266.667 353.323L267.937 354.035ZM259.634 364.725C261.586 364.618 263.142 364.506 264.302 364.391C265.471 364.269 266.55 364.067 267.542 363.787C268.551 363.505 269.315 363.103 269.836 362.583C270.326 362.092 270.562 361.624 270.543 361.178C270.541 360.73 270.215 360.323 269.563 359.958C268.93 359.604 268.274 359.49 267.596 359.616C266.935 359.74 266.323 360.062 265.759 360.582L264.531 359.894C265.413 359.07 266.382 358.595 267.438 358.468C268.493 358.342 269.492 358.542 270.432 359.068C271.39 359.605 271.934 360.245 272.063 360.988C272.2 361.736 271.892 362.487 271.138 363.241C270.512 363.867 269.668 364.348 268.606 364.683C267.562 365.016 266.52 365.245 265.481 365.369C264.45 365.486 263.18 365.587 261.671 365.672L266.475 368.362L265.615 369.222L258.899 365.461L259.634 364.725ZM278.855 367.051C279.487 366.099 279.268 365.323 278.198 364.724C277.369 364.26 276.49 364.173 275.56 364.464C274.638 364.748 273.589 365.485 272.414 366.674C273.02 366.402 273.679 366.294 274.391 366.352C275.12 366.407 275.792 366.607 276.406 366.951C277.365 367.488 277.887 368.157 277.972 368.957C278.066 369.763 277.687 370.593 276.835 371.445C276.322 371.958 275.736 372.348 275.077 372.615C274.428 372.886 273.731 373.002 272.987 372.962C272.252 372.927 271.531 372.712 270.824 372.316C269.865 371.779 269.289 371.185 269.096 370.536C268.904 369.887 269.006 369.197 269.403 368.466C269.8 367.735 270.447 366.92 271.345 366.023C274.113 363.254 276.689 362.537 279.072 363.871C279.984 364.382 280.501 364.984 280.622 365.675C280.744 366.367 280.546 367.045 280.028 367.708L278.855 367.051ZM275.27 367.674C274.87 367.449 274.425 367.306 273.935 367.244C273.453 367.174 272.965 367.212 272.47 367.359C271.992 367.503 271.56 367.767 271.175 368.152C270.602 368.725 270.339 369.308 270.387 369.899C270.442 370.483 270.851 370.989 271.614 371.416C272.266 371.781 272.944 371.908 273.65 371.798C274.373 371.685 275.014 371.349 275.572 370.791C276.161 370.203 276.435 369.638 276.394 369.098C276.361 368.55 275.987 368.075 275.27 367.674Z" fill="white"/>
<g filter="url(#filter0_d_6601_548)">
<rect width="392.073" height="212.611" rx="12" transform="matrix(0.872496 0.488621 -0.707107 0.707107 135.236 41.5842)" fill="url(#paint1_radial_6601_548)" shape-rendering="crispEdges"/>
<path d="M134.47 69.6373C134.756 69.8633 134.946 70.1389 135.038 70.464C135.14 70.7941 135.139 71.1322 135.035 71.4785C134.94 71.8297 134.746 72.1524 134.451 72.4466C134.08 72.8179 133.627 73.0888 133.093 73.2593C132.565 73.4228 131.989 73.4663 131.364 73.3897C130.755 73.3109 130.148 73.1021 129.543 72.7633L126.172 70.8755L133.496 63.5517L136.738 65.3669C137.351 65.7106 137.79 66.0875 138.054 66.4977C138.325 66.9008 138.429 67.303 138.365 67.7042C138.3 68.1054 138.093 68.4812 137.743 68.8314C137.309 69.2657 136.801 69.5442 136.22 69.6668C135.654 69.7873 135.071 69.7774 134.47 69.6373ZM131.513 67.3752L133.497 68.4861C134.05 68.7959 134.583 68.9305 135.096 68.8897C135.608 68.849 136.05 68.643 136.422 68.2717C136.793 67.9005 136.932 67.5251 136.84 67.1455C136.748 66.7659 136.416 66.4164 135.846 66.0969L133.888 65.0005L131.513 67.3752ZM130.228 71.9171C130.816 72.2463 131.386 72.3908 131.938 72.3505C132.491 72.3103 132.967 72.0906 133.366 71.6913C133.772 71.285 133.918 70.8695 133.804 70.4447C133.696 70.0129 133.353 69.6348 132.774 69.3105L130.725 68.1633L128.14 70.7481L130.228 71.9171ZM136.583 72.1815C137.171 71.593 137.833 71.1605 138.568 70.8837C139.311 70.6 140.059 70.4783 140.814 70.5187C141.578 70.564 142.276 70.7633 142.907 71.1167C143.529 71.4652 143.961 71.8763 144.202 72.35C144.442 72.8237 144.511 73.2881 144.406 73.7432L145.457 72.6925L146.65 73.3605L140.892 79.1186L139.699 78.4506L140.771 77.3788C140.201 77.5844 139.571 77.6685 138.88 77.6313C138.205 77.5919 137.56 77.4004 136.946 77.0567C136.315 76.7033 135.871 76.2577 135.613 75.72C135.355 75.1822 135.307 74.6034 135.469 73.9834C135.63 73.3635 136.002 72.7629 136.583 72.1815ZM142.588 75.561C143.023 75.1267 143.293 74.6879 143.399 74.2447C143.505 73.8014 143.457 73.3917 143.253 73.0154C143.065 72.637 142.751 72.3243 142.31 72.0775C141.869 71.8306 141.383 71.6896 140.852 71.6544C140.321 71.6192 139.786 71.7022 139.248 71.9034C138.709 72.1047 138.223 72.4224 137.789 72.8567C137.348 73.298 137.07 73.7438 136.957 74.1941C136.851 74.6373 136.892 75.0482 137.08 75.4266C137.275 75.798 137.593 76.1072 138.033 76.354C138.474 76.6009 138.96 76.7419 139.491 76.7771C140.038 76.8101 140.581 76.726 141.119 76.5248C141.664 76.3166 142.154 75.9953 142.588 75.561ZM151.841 73.1203L144.065 80.8959L142.885 80.2352L150.661 72.4596L151.841 73.1203ZM148.535 78.8751C149.124 78.2866 149.786 77.8541 150.521 77.5773C151.263 77.2936 152.012 77.1719 152.767 77.2123C153.531 77.2576 154.228 77.4569 154.859 77.8103C155.481 78.1588 155.913 78.5699 156.154 79.0436C156.395 79.5173 156.463 79.9817 156.358 80.4368L157.409 79.3861L158.602 80.0541L152.844 85.8122L151.651 85.1442L152.723 84.0724C152.153 84.278 151.523 84.3621 150.832 84.3249C150.157 84.2855 149.512 84.094 148.899 83.7503C148.268 83.3969 147.823 82.9513 147.566 82.4136C147.308 81.8758 147.26 81.297 147.421 80.6771C147.582 80.0571 147.954 79.4565 148.535 78.8751ZM154.541 82.2546C154.975 81.8203 155.245 81.3815 155.351 80.9383C155.458 80.495 155.409 80.0853 155.205 79.709C155.017 79.3306 154.703 79.0179 154.262 78.7711C153.821 78.5242 153.335 78.3832 152.804 78.348C152.273 78.3128 151.738 78.3958 151.2 78.597C150.662 78.7983 150.175 79.116 149.741 79.5503C149.3 79.9916 149.023 80.4374 148.909 80.8877C148.803 81.3309 148.844 81.7418 149.032 82.1202C149.227 82.4916 149.545 82.8008 149.986 83.0476C150.426 83.2945 150.912 83.4355 151.444 83.4707C151.99 83.5037 152.533 83.4196 153.071 83.2184C153.617 83.0102 154.106 82.6889 154.541 82.2546ZM164.163 83.0042C165.027 83.4883 165.513 84.094 165.622 84.8214C165.738 85.5419 165.396 86.3013 164.598 87.0999L161.204 90.4939L160.037 89.8404L163.294 86.583C163.869 86.0086 164.129 85.4716 164.076 84.9719C164.03 84.4652 163.7 84.04 163.086 83.6964C162.464 83.3478 161.809 83.2271 161.122 83.3342C160.444 83.4461 159.804 83.8033 159.201 84.4057L156.018 87.5895L154.838 86.9288L160.596 81.1706L161.776 81.8314L160.956 82.651C161.484 82.4875 162.027 82.4365 162.586 82.498C163.153 82.5644 163.679 82.7331 164.163 83.0042ZM165.58 88.4367C166.175 87.8413 166.84 87.4052 167.576 87.1285C168.318 86.8447 169.071 86.7255 169.835 86.7708C170.607 86.8209 171.33 87.0347 172.004 87.4123C172.877 87.9012 173.423 88.4745 173.642 89.1324C173.869 89.7951 173.769 90.4821 173.341 91.1931L172.07 90.4816C172.299 90.0636 172.338 89.6537 172.187 89.2521C172.045 88.8554 171.714 88.5118 171.195 88.2213C170.521 87.8438 169.788 87.7279 168.994 87.8739C168.208 88.0128 167.472 88.4255 166.785 89.112C166.092 89.8055 165.763 90.4575 165.8 91.0682C165.837 91.6788 166.192 92.1729 166.866 92.5504C167.385 92.8409 167.915 92.9848 168.457 92.9823C168.999 92.9798 169.517 92.8327 170.011 92.5411L171.281 93.2526C170.503 93.7345 169.65 93.9944 168.722 94.0322C167.801 94.063 166.913 93.8387 166.057 93.3595C165.383 92.982 164.905 92.5229 164.623 91.9825C164.349 91.4469 164.29 90.8726 164.444 90.2597C164.599 89.6468 164.977 89.0392 165.58 88.4367ZM180.589 96.5143C180.406 96.6964 180.201 96.8818 179.972 97.0704L174.293 93.8902C173.769 94.4818 173.562 95.0597 173.672 95.624C173.797 96.1861 174.171 96.6414 174.793 96.9899C175.303 97.2755 175.822 97.4181 176.348 97.4177C176.89 97.4152 177.391 97.2916 177.851 97.0468L179.122 97.7584C178.378 98.2053 177.546 98.4441 176.626 98.4749C175.712 98.4986 174.831 98.2733 173.984 97.799C173.31 97.4214 172.828 96.96 172.537 96.4147C172.255 95.8742 172.187 95.2951 172.333 94.6774C172.485 94.0526 172.86 93.4426 173.455 92.8471C174.05 92.2517 174.719 91.8121 175.461 91.5284C176.204 91.2446 176.957 91.1313 177.723 91.1884C178.504 91.2434 179.24 91.4645 179.932 91.8517C180.606 92.2293 181.083 92.6823 181.364 93.211C181.644 93.7396 181.712 94.2915 181.569 94.8667C181.441 95.4397 181.114 95.9889 180.589 96.5143ZM179.569 95.6321C179.934 95.2679 180.146 94.9005 180.206 94.5299C180.274 94.1524 180.201 93.8003 179.989 93.4736C179.792 93.1447 179.486 92.8641 179.071 92.6317C178.474 92.2977 177.81 92.1663 177.079 92.2373C176.355 92.3132 175.69 92.6074 175.084 93.1199L179.569 95.6321Z" fill="white"/>
<path d="M106.177 104.402L108.111 102.469C112.719 104.656 116.409 103.838 118.385 101.862C120.444 99.803 120.015 97.5626 117.045 95.1124L113.406 92.1569C111.715 90.6524 111.233 89.7594 112.452 88.5405C113.713 87.2796 115.588 87.3462 118.751 89.1179C122.355 91.1364 122.764 92.7096 121.041 94.4328L120.768 94.706L123.543 96.2598L123.669 96.1337C126.148 93.6539 126.194 90.696 122.506 88.0734L124.46 86.119L121.867 84.6668L119.934 86.6002C115.118 84.2965 111.416 85.2069 109.525 87.0983C107.213 89.4099 108.195 91.6644 110.705 93.7257L114.39 96.6747C116.258 98.2453 116.677 99.2013 115.458 100.42C114.134 101.744 112.379 101.679 109.06 99.8203C105.248 97.6856 104.87 96.1625 106.551 94.4813L106.888 94.1451L104.087 92.5767L103.961 92.7028C101.292 95.3717 101.653 98.3278 105.539 100.995L103.584 102.95L106.177 104.402ZM127.998 113.672C132.743 116.329 137.093 116.47 139.761 113.801C141.716 111.847 141.347 109.87 139.189 108.104L139.357 107.936C141.881 108.89 144.183 108.409 145.78 106.812C148.176 104.416 146.984 101.684 142.55 99.2003C137.157 96.1798 132.608 96.8452 129.855 99.5982L129.666 99.7873L132.622 101.443L132.769 101.296C134.618 99.4464 136.621 99.2237 140.173 101.213C143.544 103.101 143.93 104.333 142.564 105.699C141.303 106.96 139.584 106.981 137.483 105.804L133.023 103.307L131.132 105.198L135.981 107.914C138.159 109.133 138.7 110.453 137.271 111.882C135.611 113.542 133.642 113.489 130.038 111.47C126.2 109.321 126.128 107.936 127.977 106.087L128.272 105.793L125.316 104.137L124.979 104.474C122.121 107.332 122.553 110.622 127.998 113.672ZM150.881 126.159L153.739 123.301L156.721 124.971L158.759 122.932L155.777 121.262L164.961 112.079L161.72 110.264L141.442 113.956L139.866 115.532L150.964 121.747L148.106 124.605L150.881 126.159ZM145.768 115.657L145.936 115.489L159.331 113.057L159.538 113.173L153.003 119.709L145.768 115.657ZM153.802 131.467C155.41 132.367 156.974 132.259 158.277 130.956L161.954 127.279L158.428 125.304L155.17 128.561L156.726 129.432L156.285 129.874C155.844 130.315 155.552 130.283 155.111 130.036L154.256 129.557L152.869 130.944L153.802 131.467ZM167.881 136.007C172.626 138.665 176.976 138.806 179.645 136.137C181.599 134.182 181.23 132.205 179.072 130.439L179.24 130.271C181.764 131.226 184.066 130.745 185.663 129.147C188.059 126.752 186.867 124.019 182.433 121.536C177.04 118.515 172.491 119.181 169.738 121.934L169.549 122.123L172.505 123.778L172.652 123.631C174.501 121.782 176.504 121.559 180.056 123.549C183.427 125.437 183.813 126.669 182.447 128.035C181.186 129.296 179.467 129.316 177.366 128.14L172.906 125.642L171.015 127.534L175.864 130.249C178.042 131.469 178.583 132.789 177.154 134.218C175.494 135.878 173.525 135.824 169.921 133.806C166.083 131.656 166.011 130.272 167.861 128.423L168.155 128.129L165.199 126.473L164.863 126.809C162.005 129.667 162.436 132.958 167.881 136.007ZM183.534 144.478C189.103 138.909 194.567 137.248 203.249 136.373L205.077 134.545L190.712 126.5L188.673 128.539L200.057 134.914L199.889 135.082C194.109 135.32 186.906 136.171 180.371 142.707L183.534 144.478ZM199.483 153.705C204.332 156.421 208.767 156.839 211.499 154.107C213.432 152.174 213.032 150.147 210.777 148.195L210.945 148.027C213.677 149.098 216.155 148.683 217.773 147.064C219.98 144.858 218.91 141.964 213.983 139.205C209.056 136.445 205.044 136.493 202.837 138.7C201.219 140.318 201.412 142.229 203.503 143.859L203.335 144.027C200.327 143.031 197.511 143.258 195.578 145.191C192.846 147.923 194.582 150.96 199.483 153.705ZM207.783 145.404C204.438 143.531 203.767 142.139 205.133 140.773C206.436 139.47 208.235 139.33 211.839 141.348C215.47 143.381 215.797 144.712 214.494 146.015C213.128 147.381 211.154 147.292 207.783 145.404ZM201.626 151.561C197.84 149.441 197.185 147.993 198.825 146.353C200.359 144.819 202.468 144.854 206.228 146.959C209.988 149.065 210.627 150.57 209.093 152.104C207.454 153.743 205.386 153.667 201.626 151.561ZM207.638 161.616C209.246 162.517 210.81 162.409 212.113 161.106L215.79 157.428L212.264 155.453L209.006 158.711L210.562 159.582L210.121 160.023C209.68 160.465 209.388 160.433 208.947 160.186L208.092 159.706L206.705 161.093L207.638 161.616ZM227.71 169.185L230.568 166.327L233.55 167.997L235.588 165.959L232.606 164.289L241.79 155.105L238.548 153.29L218.271 156.982L216.695 158.558L227.793 164.773L224.935 167.631L227.71 169.185ZM222.597 158.683L222.765 158.515L236.16 156.083L236.367 156.199L229.832 162.735L222.597 158.683ZM245.613 179.211L248.471 176.353L251.453 178.023L253.491 175.985L250.509 174.315L259.693 165.131L256.452 163.316L236.174 167.008L234.598 168.584L245.696 174.799L242.838 177.657L245.613 179.211ZM240.5 168.709L240.668 168.541L254.063 166.109L254.27 166.225L247.735 172.761L240.5 168.709Z" fill="white"/>
<path d="M43.7691 164.363L42.5893 163.702L43.6757 155.213L37.844 161.045L36.6642 160.384L43.9984 153.05L45.1783 153.71L44.1024 162.189L49.9235 156.368L51.1034 157.029L43.7691 164.363ZM57.8395 163.26L52.0814 169.018L50.9016 168.357L51.7527 167.506C51.2338 167.675 50.6871 167.729 50.1127 167.67C49.554 167.608 49.0327 167.442 48.5486 167.171C47.9954 166.861 47.5895 166.491 47.3308 166.062C47.0791 165.626 47.0093 165.15 47.1212 164.634C47.2418 164.122 47.5683 163.6 48.1007 163.068L51.4736 159.695L52.6405 160.348L49.3937 163.595C48.8263 164.163 48.5656 164.7 48.6118 165.206C48.665 165.706 48.9984 166.128 49.6121 166.471C50.2431 166.825 50.8977 166.945 51.5759 166.833C52.2542 166.722 52.8945 166.364 53.4969 165.762L56.6597 162.599L57.8395 163.26ZM68.4808 169.055C69.034 169.365 69.4321 169.736 69.6751 170.167C69.9251 170.591 69.9899 171.059 69.8693 171.57C69.7486 172.082 69.4222 172.604 68.8898 173.137L65.4958 176.53L64.329 175.877L67.5863 172.62C68.1607 172.045 68.4213 171.508 68.3682 171.009C68.3307 170.507 68.0137 170.089 67.4173 169.755C66.8036 169.411 66.1541 169.299 65.4689 169.418C64.7906 169.53 64.1503 169.887 63.5479 170.489L60.3746 173.662L59.2077 173.009L62.4651 169.752C63.0395 169.177 63.3001 168.64 63.2469 168.14C63.2094 167.639 62.8924 167.221 62.296 166.887C61.6824 166.543 61.0329 166.431 60.3476 166.55C59.6694 166.661 59.029 167.019 58.4266 167.621L55.2533 170.794L54.0735 170.134L59.8316 164.376L61.0115 165.036L60.1814 165.866C60.716 165.696 61.2583 165.639 61.8084 165.696C62.3671 165.757 62.8841 165.921 63.3595 166.187C63.9559 166.521 64.3746 166.925 64.6155 167.399C64.8565 167.873 64.8792 168.382 64.6836 168.929C65.2887 168.634 65.9324 168.502 66.6146 168.535C67.2969 168.567 67.9189 168.741 68.4808 169.055ZM73.2974 173.589C73.8827 173.381 74.5172 173.299 75.2011 173.343C75.885 173.388 76.5252 173.577 77.1216 173.911C77.7612 174.269 78.2134 174.714 78.4782 175.244C78.743 175.775 78.7982 176.347 78.6437 176.96C78.4963 177.566 78.1284 178.163 77.5399 178.751C76.9585 179.333 76.2932 179.769 75.544 180.06C74.7948 180.35 74.0348 180.477 73.264 180.438C72.5019 180.405 71.8053 180.211 71.1743 179.858C70.5606 179.514 70.129 179.103 69.8794 178.625C69.6385 178.151 69.5694 177.681 69.6723 177.214L68.611 178.275L67.4312 177.614L75.2068 169.839L76.3866 170.499L73.2974 173.589ZM76.3342 178.076C76.7685 177.642 77.0387 177.203 77.1449 176.76C77.251 176.316 77.2023 175.907 76.9987 175.53C76.8038 175.159 76.486 174.85 76.0452 174.603C75.613 174.361 75.1235 174.223 74.5767 174.19C74.0456 174.155 73.503 174.239 72.949 174.443C72.4107 174.644 71.9279 174.958 71.5006 175.385C71.0663 175.82 70.7926 176.262 70.6794 176.712C70.5819 177.16 70.6271 177.574 70.815 177.952C71.0186 178.328 71.3364 178.638 71.7686 178.88C72.2094 179.126 72.6954 179.267 73.2265 179.303C73.7733 179.336 74.3159 179.252 74.8542 179.05C75.3995 178.842 75.8929 178.517 76.3342 178.076ZM85.7752 183.052C85.593 183.234 85.3874 183.419 85.1583 183.608L79.4796 180.428C78.9554 181.019 78.7483 181.597 78.8582 182.161C78.9838 182.724 79.3578 183.179 79.9801 183.527C80.4901 183.813 81.0082 183.956 81.5344 183.955C82.0763 183.953 82.5775 183.829 83.038 183.584L84.3086 184.296C83.565 184.743 82.7329 184.982 81.8122 185.012C80.8985 185.036 80.0181 184.811 79.171 184.336C78.4968 183.959 78.0144 183.497 77.7237 182.952C77.4416 182.412 77.3734 181.833 77.5192 181.215C77.672 180.59 78.0462 179.98 78.6416 179.385C79.237 178.789 79.9058 178.35 80.648 178.066C81.3902 177.782 82.144 177.669 82.9095 177.726C83.6905 177.781 84.4268 178.002 85.1183 178.389C85.7925 178.767 86.2698 179.22 86.5502 179.748C86.8307 180.277 86.899 180.829 86.7553 181.404C86.6273 181.977 86.3005 182.526 85.7752 183.052ZM84.7561 182.17C85.1203 181.805 85.3327 181.438 85.393 181.067C85.4604 180.69 85.3878 180.338 85.1752 180.011C84.9782 179.682 84.6722 179.402 84.2573 179.169C83.6609 178.835 82.9969 178.704 82.2651 178.775C81.542 178.851 80.877 179.145 80.2701 179.657L84.7561 182.17ZM90.2356 182.861C90.7722 182.648 91.3218 182.557 91.8843 182.588C92.4553 182.624 93.0175 182.797 93.5707 183.106L92.5829 184.094L92.2718 183.92C90.9493 183.179 89.7067 183.39 88.5439 184.553L85.4126 187.684L84.2328 187.024L89.9909 181.266L91.1707 181.926L90.2356 182.861Z" fill="white"/>
<path d="M25.2504 171.547C26.0096 170.89 26.8832 170.532 27.8712 170.473C28.8592 170.414 29.8279 170.651 30.7774 171.183C31.4104 171.537 31.8606 171.936 32.1281 172.38C32.4125 172.822 32.5126 173.267 32.4285 173.714C32.3536 174.166 32.1163 174.592 31.7165 174.992C31.2488 175.46 30.6776 175.77 30.003 175.921C29.3378 176.078 28.6908 176.057 28.0622 175.858L28.0056 175.915C28.4899 176.374 28.7317 176.88 28.7308 177.433C28.73 177.986 28.4429 178.549 27.8696 179.122C27.4396 179.552 26.9301 179.873 26.341 180.084C25.7595 180.288 25.1287 180.353 24.4485 180.278C23.7683 180.203 23.0885 179.975 22.409 179.595C21.4223 179.042 20.8199 178.381 20.6019 177.612C20.3914 176.835 20.6336 176.041 21.3286 175.23L22.5573 175.918C22.1699 176.407 22.0283 176.904 22.1326 177.41C22.2368 177.915 22.6148 178.351 23.2664 178.716C23.9179 179.08 24.5471 179.221 25.1537 179.137C25.7773 179.051 26.3078 178.789 26.7454 178.351C27.3112 177.786 27.4858 177.248 27.2693 176.738C27.0529 176.229 26.4746 175.711 25.5344 175.184L25.2133 175.004L26.0733 174.144L26.4084 174.332C27.2723 174.804 28.0324 175.053 28.6887 175.079C29.3525 175.098 29.9182 174.873 30.3859 174.406C30.7858 174.006 30.9435 173.594 30.8591 173.17C30.784 172.752 30.4486 172.375 29.8529 172.042C29.2758 171.719 28.6896 171.579 28.0945 171.622C27.4994 171.665 26.9656 171.872 26.493 172.243L25.2504 171.547ZM41.1026 178.607L36.2018 175.862L33.6218 178.442C34.0773 178.321 34.5899 178.302 35.1597 178.385C35.737 178.462 36.2676 178.635 36.7517 178.906C37.5242 179.339 38.0205 179.823 38.2405 180.358C38.4681 180.886 38.4768 181.414 38.2667 181.944C38.0734 182.471 37.7467 182.965 37.2865 183.425C36.7433 183.968 36.1311 184.384 35.4498 184.674C34.7684 184.963 34.0427 185.086 33.2724 185.043C32.5115 185.005 31.7494 184.773 30.9862 184.345C30.0088 183.798 29.4213 183.151 29.2236 182.405C29.0259 181.659 29.2014 180.909 29.75 180.158L30.9927 180.853C30.6837 181.351 30.604 181.83 30.7535 182.291C30.9031 182.751 31.2757 183.148 31.8714 183.482C32.6068 183.893 33.3379 184.026 34.0648 183.88C34.7993 183.727 35.4607 183.356 36.0491 182.767C36.6375 182.179 36.904 181.622 36.8485 181.097C36.8006 180.564 36.4136 180.094 35.6875 179.687C35.1942 179.411 34.6633 179.267 34.0948 179.254C33.5432 179.24 33.0176 179.351 32.5181 179.589L31.3173 178.917L35.9342 174.3L42.0079 177.702L41.1026 178.607ZM49.8701 183.517L44.9693 180.772L42.3893 183.352C42.8448 183.231 43.3574 183.212 43.9271 183.296C44.5044 183.372 45.0351 183.545 45.5191 183.816C46.2917 184.249 46.788 184.733 47.008 185.268C47.2356 185.796 47.2443 186.324 47.0341 186.854C46.8409 187.381 46.5141 187.875 46.054 188.335C45.5108 188.878 44.8986 189.294 44.2172 189.584C43.5359 189.873 42.8101 189.996 42.0399 189.953C41.279 189.915 40.5169 189.683 39.7536 189.255C38.7763 188.708 38.1887 188.061 37.9911 187.315C37.7934 186.569 37.9689 185.82 38.5175 185.068L39.7602 185.764C39.4512 186.261 39.3714 186.74 39.521 187.201C39.6705 187.661 40.0432 188.058 40.6389 188.392C41.3743 188.803 42.1054 188.936 42.8323 188.79C43.5667 188.637 44.2282 188.266 44.8166 187.677C45.405 187.089 45.6715 186.532 45.616 186.007C45.568 185.474 45.181 185.004 44.455 184.597C43.9616 184.321 43.4307 184.177 42.8623 184.164C42.3106 184.15 41.7851 184.261 41.2856 184.499L40.0848 183.827L44.7017 179.21L50.7754 182.612L49.8701 183.517ZM46.4282 190.116L47.209 189.335L57.6093 186.58L59.1312 187.432L53.7449 192.819L55.1411 193.601L54.2472 194.494L52.8509 193.713L51.0291 195.534L49.7724 194.831L51.5943 193.009L46.4282 190.116ZM56.8554 187.835L48.7882 190.043L52.5441 192.146L56.8554 187.835ZM71.0083 195.214L59.7488 200.418L58.4642 199.698L69.6777 194.627L64.2882 191.609L65.1708 190.726L71.7891 194.433L71.0083 195.214ZM76.9011 200.297C77.5336 199.345 77.3147 198.569 76.2442 197.969C75.4158 197.505 74.5365 197.419 73.6064 197.71C72.6839 197.994 71.6351 198.73 70.46 199.92C71.0664 199.648 71.7256 199.54 72.4377 199.598C73.1667 199.653 73.8384 199.852 74.4527 200.196C75.4115 200.733 75.9333 201.402 76.0183 202.203C76.1127 203.009 75.7336 203.838 74.8811 204.691C74.3681 205.204 73.7823 205.594 73.1236 205.86C72.4742 206.132 71.7775 206.248 71.0334 206.208C70.2987 206.173 69.5776 205.957 68.8702 205.561C67.9114 205.024 67.3356 204.431 67.1427 203.782C66.9499 203.132 67.0519 202.442 67.4489 201.711C67.8458 200.98 68.4932 200.166 69.3909 199.268C72.1595 196.5 74.7353 195.783 77.1182 197.117C78.0304 197.628 78.5473 198.229 78.6687 198.921C78.7901 199.613 78.5919 200.29 78.0739 200.953L76.9011 200.297ZM73.3161 200.919C72.9158 200.695 72.471 200.552 71.9815 200.49C71.4995 200.42 71.011 200.458 70.516 200.604C70.0379 200.749 69.6065 201.013 69.2217 201.398C68.6484 201.971 68.3855 202.554 68.4329 203.145C68.4879 203.729 68.8971 204.235 69.6604 204.662C70.312 205.027 70.9908 205.154 71.6968 205.043C72.4197 204.93 73.0602 204.595 73.6185 204.037C74.2069 203.448 74.4809 202.884 74.4405 202.343C74.4076 201.795 74.0328 201.321 73.3161 200.919ZM79.996 202.206C80.7552 201.549 81.6288 201.191 82.6168 201.132C83.6048 201.073 84.5736 201.31 85.523 201.842C86.156 202.196 86.6062 202.595 86.8737 203.039C87.1581 203.481 87.2582 203.926 87.1741 204.373C87.0993 204.825 86.8619 205.251 86.4621 205.651C85.9944 206.119 85.4232 206.429 84.7487 206.58C84.0834 206.737 83.4364 206.716 82.8078 206.517L82.7512 206.574C83.2356 207.033 83.4773 207.54 83.4765 208.092C83.4756 208.645 83.1885 209.208 82.6152 209.781C82.1852 210.211 81.6757 210.532 81.0866 210.743C80.5052 210.947 79.8743 211.012 79.1941 210.937C78.514 210.862 77.8341 210.634 77.1546 210.254C76.1679 209.701 75.5656 209.04 75.3475 208.271C75.137 207.494 75.3792 206.7 76.0743 205.889L77.303 206.577C76.9155 207.066 76.7739 207.563 76.8782 208.069C76.9825 208.574 77.3604 209.01 78.012 209.375C78.6636 209.739 79.2927 209.88 79.8994 209.796C80.5229 209.71 81.0534 209.448 81.491 209.01C82.0568 208.445 82.2314 207.907 82.015 207.397C81.7985 206.888 81.2202 206.37 80.28 205.843L79.9589 205.663L80.8189 204.803L81.154 204.991C82.0179 205.463 82.778 205.712 83.4343 205.738C84.0981 205.757 84.6638 205.533 85.1316 205.065C85.5314 204.665 85.6891 204.253 85.6047 203.829C85.5296 203.411 85.1942 203.034 84.5985 202.701C84.0214 202.378 83.4353 202.238 82.8401 202.281C82.245 202.324 81.7112 202.531 81.2387 202.902L79.996 202.206ZM83.6388 210.955L84.4196 210.174L94.8199 207.419L96.3419 208.271L90.9555 213.658L92.3518 214.44L91.4578 215.333L90.0616 214.552L88.2397 216.373L86.9831 215.67L88.805 213.848L83.6388 210.955ZM94.0661 208.674L85.9988 210.882L89.7548 212.985L94.0661 208.674ZM95.3002 219.039C97.2518 218.931 98.8079 218.82 99.9684 218.705C101.137 218.582 102.216 218.381 103.208 218.101C104.217 217.818 104.981 217.417 105.502 216.896C105.992 216.406 106.228 215.938 106.209 215.492C106.207 215.044 105.881 214.637 105.229 214.272C104.596 213.918 103.941 213.804 103.262 213.93C102.601 214.054 101.989 214.376 101.425 214.896L100.197 214.208C101.079 213.384 102.048 212.908 103.104 212.782C104.16 212.655 105.158 212.855 106.098 213.382C107.056 213.919 107.6 214.558 107.729 215.301C107.866 216.049 107.558 216.8 106.804 217.555C106.178 218.181 105.334 218.662 104.272 218.997C103.228 219.33 102.186 219.559 101.147 219.683C100.116 219.8 98.8457 219.9 97.3375 219.985L102.141 222.675L101.281 223.535L94.5646 219.774L95.3002 219.039ZM114.521 221.365C115.153 220.413 114.934 219.637 113.864 219.037C113.036 218.573 112.156 218.487 111.226 218.778C110.304 219.062 109.255 219.798 108.08 220.988C108.686 220.716 109.345 220.608 110.057 220.666C110.786 220.721 111.458 220.92 112.072 221.265C113.031 221.801 113.553 222.47 113.638 223.271C113.732 224.077 113.353 224.906 112.501 225.759C111.988 226.272 111.402 226.662 110.743 226.928C110.094 227.2 109.397 227.316 108.653 227.276C107.918 227.241 107.197 227.025 106.49 226.629C105.531 226.092 104.955 225.499 104.762 224.85C104.57 224.2 104.672 223.51 105.069 222.779C105.466 222.048 106.113 221.234 107.011 220.336C109.779 217.568 112.355 216.851 114.738 218.185C115.65 218.696 116.167 219.297 116.288 219.989C116.41 220.681 116.212 221.358 115.694 222.021L114.521 221.365ZM110.936 221.987C110.536 221.763 110.091 221.62 109.601 221.558C109.119 221.488 108.631 221.526 108.136 221.673C107.658 221.817 107.226 222.081 106.841 222.466C106.268 223.039 106.005 223.622 106.053 224.213C106.108 224.797 106.517 225.303 107.28 225.73C107.932 226.095 108.61 226.222 109.317 226.112C110.039 225.999 110.68 225.663 111.238 225.105C111.827 224.516 112.101 223.952 112.06 223.411C112.027 222.863 111.653 222.389 110.936 221.987ZM113.036 227.418L113.817 226.637L124.218 223.882L125.739 224.735L120.353 230.121L121.749 230.903L120.855 231.797L119.459 231.015L117.637 232.837L116.381 232.133L118.203 230.311L113.036 227.418ZM123.464 225.137L115.396 227.345L119.152 229.449L123.464 225.137ZM133.894 230.431L122.635 235.635L121.35 234.916L132.564 229.845L127.174 226.827L128.057 225.944L134.675 229.651L133.894 230.431ZM135.823 236.507C137.121 235.21 138.392 234.345 139.638 233.913C140.891 233.473 142.169 233.618 143.472 234.348C144.766 235.072 145.307 235.946 145.097 236.97C144.894 237.986 144.144 239.143 142.846 240.44C141.526 241.761 140.239 242.641 138.986 243.08C137.733 243.52 136.46 243.378 135.166 242.653C133.863 241.924 133.317 241.047 133.527 240.023C133.737 238.999 134.503 237.827 135.823 236.507ZM141.59 239.737C142.246 239.08 142.744 238.495 143.085 237.979C143.443 237.462 143.594 236.97 143.538 236.503C143.491 236.041 143.156 235.636 142.533 235.287C141.9 234.932 141.276 234.801 140.662 234.892C140.057 234.989 139.469 235.236 138.897 235.634C138.342 236.029 137.736 236.555 137.08 237.211C136.401 237.89 135.882 238.488 135.525 239.006C135.176 239.528 135.025 240.021 135.072 240.482C135.128 240.949 135.472 241.36 136.105 241.714C136.729 242.063 137.343 242.19 137.948 242.093C138.562 242.002 139.151 241.754 139.713 241.352C140.285 240.954 140.911 240.416 141.59 239.737ZM141.087 244.681C143.039 244.573 144.595 244.462 145.756 244.347C146.924 244.225 148.004 244.023 148.995 243.743C150.004 243.46 150.769 243.059 151.289 242.538C151.779 242.048 152.015 241.58 151.996 241.134C151.995 240.686 151.668 240.279 151.016 239.914C150.383 239.56 149.728 239.446 149.05 239.572C148.388 239.696 147.776 240.018 147.212 240.538L145.984 239.85C146.866 239.026 147.835 238.55 148.891 238.424C149.947 238.297 150.945 238.497 151.885 239.024C152.844 239.561 153.387 240.201 153.516 240.943C153.654 241.691 153.345 242.443 152.591 243.197C151.965 243.823 151.121 244.304 150.06 244.639C149.015 244.972 147.973 245.201 146.934 245.325C145.903 245.442 144.633 245.542 143.125 245.628L147.928 248.317L147.068 249.177L140.352 245.416L141.087 244.681ZM154.54 243.953C155.299 243.296 156.173 242.937 157.161 242.879C158.149 242.82 159.118 243.057 160.067 243.588C160.7 243.943 161.15 244.342 161.418 244.786C161.702 245.228 161.802 245.672 161.718 246.119C161.643 246.572 161.406 246.998 161.006 247.398C160.538 247.865 159.967 248.175 159.293 248.327C158.627 248.484 157.98 248.463 157.352 248.264L157.295 248.321C157.78 248.78 158.021 249.286 158.021 249.839C158.02 250.391 157.733 250.954 157.159 251.528C156.729 251.958 156.22 252.279 155.631 252.49C155.049 252.694 154.418 252.758 153.738 252.684C153.058 252.609 152.378 252.381 151.699 252C150.712 251.448 150.11 250.787 149.892 250.017C149.681 249.24 149.923 248.446 150.618 247.635L151.847 248.323C151.46 248.812 151.318 249.31 151.422 249.815C151.526 250.321 151.904 250.756 152.556 251.121C153.208 251.486 153.837 251.627 154.443 251.543C155.067 251.456 155.597 251.195 156.035 250.757C156.601 250.191 156.775 249.654 156.559 249.144C156.343 248.634 155.764 248.116 154.824 247.59L154.503 247.41L155.363 246.55L155.698 246.738C156.562 247.21 157.322 247.459 157.978 247.485C158.642 247.504 159.208 247.279 159.676 246.811C160.075 246.412 160.233 246 160.149 245.576C160.074 245.157 159.738 244.781 159.143 244.448C158.565 244.124 157.979 243.984 157.384 244.028C156.789 244.071 156.255 244.278 155.783 244.649L154.54 243.953ZM170.259 250.797L159 256.001L157.715 255.282L168.929 250.211L163.539 247.192L164.422 246.31L171.04 250.016L170.259 250.797Z" fill="white"/>
<path d="M323.641 310.886L321.192 313.334L324.486 315.179L323.698 315.967L320.404 314.123L317.883 316.644L321.565 318.706L320.777 319.494L315.915 316.772L323.249 309.437L328.111 312.16L327.323 312.948L323.641 310.886ZM326.27 322.571L326.728 319.483L322.964 320.719L321.732 320.03L326.885 318.457L327.49 314.271L328.826 315.019L328.378 318.096L332.119 316.864L333.35 317.553L328.221 319.123L327.605 323.319L326.27 322.571ZM334.643 319.933C335.205 319.734 335.824 319.654 336.499 319.694C337.19 319.731 337.843 319.922 338.456 320.265C339.087 320.619 339.535 321.061 339.8 321.591C340.073 322.127 340.133 322.701 339.978 323.314C339.831 323.92 339.463 324.517 338.875 325.106C338.293 325.687 337.628 326.123 336.879 326.414C336.13 326.705 335.37 326.831 334.599 326.793C333.837 326.759 333.14 326.566 332.509 326.212C331.904 325.874 331.477 325.465 331.227 324.986C330.993 324.506 330.92 324.033 331.007 323.568L327.214 327.361L326.034 326.701L334.524 318.211L335.704 318.871L334.643 319.933ZM337.669 324.43C338.103 323.996 338.373 323.557 338.48 323.114C338.586 322.671 338.537 322.261 338.333 321.885C338.139 321.513 337.821 321.204 337.38 320.957C336.948 320.715 336.458 320.578 335.911 320.545C335.38 320.51 334.838 320.594 334.284 320.797C333.745 320.998 333.263 321.313 332.835 321.74C332.401 322.174 332.127 322.616 332.014 323.067C331.917 323.515 331.962 323.928 332.15 324.306C332.353 324.683 332.671 324.992 333.103 325.234C333.544 325.481 334.03 325.622 334.561 325.657C335.108 325.69 335.651 325.606 336.189 325.405C336.734 325.196 337.228 324.872 337.669 324.43Z" fill="white"/>
<path d="M299.079 333.16C301.031 333.053 302.587 332.942 303.748 332.827C304.916 332.704 305.996 332.503 306.987 332.223C307.996 331.94 308.761 331.539 309.281 331.018C309.771 330.528 310.007 330.06 309.988 329.614C309.987 329.165 309.66 328.759 309.008 328.394C308.375 328.039 307.72 327.925 307.042 328.052C306.38 328.176 305.768 328.498 305.204 329.018L303.976 328.329C304.858 327.505 305.827 327.03 306.883 326.904C307.939 326.777 308.937 326.977 309.877 327.503C310.836 328.04 311.379 328.68 311.508 329.423C311.646 330.171 311.337 330.922 310.583 331.677C309.957 332.303 309.113 332.783 308.052 333.119C307.007 333.452 305.965 333.68 304.926 333.805C303.895 333.921 302.625 334.022 301.117 334.107L305.92 336.797L305.06 337.657L298.344 333.896L299.079 333.16ZM307.953 336.576L308.734 335.796L319.134 333.041L320.656 333.893L315.27 339.279L316.666 340.061L315.772 340.955L314.376 340.173L312.554 341.995L311.297 341.291L313.119 339.47L307.953 336.576ZM318.38 334.296L310.313 336.503L314.069 338.607L318.38 334.296ZM330.835 335.604L314.427 346.045L313.17 345.341L329.565 334.893L330.835 335.604ZM322.532 346.295C324.484 346.187 326.04 346.076 327.2 345.961C328.368 345.838 329.448 345.637 330.44 345.357C331.449 345.074 332.213 344.673 332.734 344.152C333.224 343.662 333.46 343.194 333.441 342.748C333.439 342.3 333.113 341.893 332.461 341.528C331.828 341.174 331.172 341.059 330.494 341.186C329.833 341.31 329.221 341.632 328.657 342.152L327.428 341.464C328.311 340.64 329.28 340.164 330.336 340.038C331.391 339.911 332.389 340.111 333.33 340.638C334.288 341.175 334.832 341.814 334.961 342.557C335.098 343.305 334.79 344.056 334.036 344.811C333.409 345.437 332.566 345.918 331.504 346.253C330.46 346.586 329.418 346.815 328.379 346.939C327.347 347.055 326.078 347.156 324.569 347.241L329.373 349.931L328.513 350.791L321.797 347.03L322.532 346.295ZM341.753 348.621C342.385 347.669 342.166 346.893 341.096 346.293C340.267 345.829 339.388 345.743 338.458 346.034C337.536 346.318 336.487 347.054 335.312 348.244C335.918 347.972 336.577 347.864 337.289 347.922C338.018 347.977 338.69 348.176 339.304 348.52C340.263 349.057 340.785 349.726 340.87 350.527C340.964 351.333 340.585 352.162 339.733 353.015C339.22 353.528 338.634 353.918 337.975 354.184C337.326 354.456 336.629 354.572 335.885 354.532C335.15 354.497 334.429 354.281 333.722 353.885C332.763 353.348 332.187 352.755 331.994 352.106C331.802 351.456 331.904 350.766 332.301 350.035C332.697 349.304 333.345 348.49 334.243 347.592C337.011 344.824 339.587 344.107 341.97 345.441C342.882 345.952 343.399 346.553 343.52 347.245C343.642 347.937 343.444 348.614 342.926 349.277L341.753 348.621ZM338.168 349.243C337.767 349.019 337.323 348.876 336.833 348.813C336.351 348.744 335.863 348.782 335.368 348.928C334.89 349.073 334.458 349.337 334.073 349.722C333.5 350.295 333.237 350.877 333.285 351.469C333.34 352.053 333.749 352.559 334.512 352.986C335.164 353.351 335.842 353.478 336.548 353.367C337.271 353.254 337.912 352.919 338.47 352.361C339.059 351.772 339.333 351.208 339.292 350.667C339.259 350.119 338.884 349.645 338.168 349.243Z" fill="white"/>
</g>
<defs>
<filter id="filter0_d_6601_548" x="-75.1021" y="-3.41583" width="612.42" height="461.914" filterUnits="userSpaceOnUse" color-interpolation-filters="sRGB">
<feFlood flood-opacity="0" result="BackgroundImageFix"/>
<feColorMatrix in="SourceAlpha" type="matrix" values="0 0 0 0 0 0 0 0 0 0 0 0 0 0 0 0 0 0 127 0" result="hardAlpha"/>
<feOffset dy="15"/>
<feGaussianBlur stdDeviation="30"/>
<feComposite in2="hardAlpha" operator="out"/>
<feColorMatrix type="matrix" values="0 0 0 0 0 0 0 0 0 0 0 0 0 0 0 0 0 0 0.25 0"/>
<feBlend mode="normal" in2="BackgroundImageFix" result="effect1_dropShadow_6601_548"/>
<feBlend mode="normal" in="SourceGraphic" in2="effect1_dropShadow_6601_548" result="shape"/>
</filter>
<linearGradient id="paint0_linear_6601_548" x1="0" y1="106.305" x2="392.073" y2="106.305" gradientUnits="userSpaceOnUse">
<stop stop-color="#FF3195"/>
<stop offset="1" stop-color="#061700"/>
</linearGradient>
<radialGradient id="paint1_radial_6601_548" cx="0" cy="0" r="1" gradientUnits="userSpaceOnUse" gradientTransform="translate(51.22 131.497) rotate(-11.6688) scale(337.426 182.978)">
<stop stop-color="#92093D"/>
<stop offset="0.604167" stop-color="#FF3195"/>
<stop offset="0.892823" stop-color="#AF0546"/>
<stop offset="1" stop-color="#FF60B4"/>
</radialGradient>
</defs>
</svg>
