<svg  viewBox="0 0 168 168" fill="none" xmlns="http://www.w3.org/2000/svg">
<g filter="url(#filter0_d_1111_146)">
<ellipse opacity="0.1" cx="84" cy="155.2" rx="80" ry="4.8" fill="currentColor"/>
<path fill-rule="evenodd" clip-rule="evenodd" d="M26.4004 31.415C26.4004 29.087 28.2877 27.1997 30.6157 27.1997C32.9438 27.1997 34.8311 29.087 34.8311 31.415V40.0868C34.8311 42.4148 32.9438 44.3021 30.6157 44.3021C28.2877 44.3021 26.4004 42.4148 26.4004 40.0868V31.415ZM30.6157 30.3997C30.055 30.3997 29.6004 30.8543 29.6004 31.415V40.0868C29.6004 40.6475 30.055 41.1021 30.6157 41.1021C31.1765 41.1021 31.6311 40.6475 31.6311 40.0868V31.415C31.6311 30.8543 31.1765 30.3997 30.6157 30.3997ZM45.6004 47.9997C45.6004 43.5814 49.1821 39.9997 53.6004 39.9997H106.842C104.553 42.7234 102.902 45.9998 102.116 49.5997H45.6004V47.9997ZM101.657 52.7997H39.2004C34.7821 52.7997 31.2004 56.3814 31.2004 60.7997V68.7997H106.842C103.571 64.9061 101.6 59.883 101.6 54.3997C101.6 53.8617 101.619 53.3282 101.657 52.7997ZM127.2 76.5729V108.8H130.4C134.819 108.8 138.4 105.218 138.4 100.8V71.5585C135.278 74.1814 131.43 75.9679 127.2 76.5729ZM141.6 68.2576V100.8C141.6 106.985 136.586 112 130.4 112H127.2V113.6C127.2 119.785 122.186 124.8 116 124.8H39.2004C33.0148 124.8 28.0004 119.785 28.0004 113.6V60.7997C28.0004 54.6141 33.0148 49.5997 39.2004 49.5997H42.4004V47.9997C42.4004 41.8141 47.4148 36.7997 53.6004 36.7997H109.6V37.2409C113.494 33.9699 118.517 31.9997 124 31.9997C136.372 31.9997 146.4 42.0285 146.4 54.3997C146.4 59.6318 144.607 64.4449 141.6 68.2576ZM31.2004 78.3997L124 78.3997V108.8V112V113.6C124 118.018 120.419 121.6 116 121.6H39.2004C34.7821 121.6 31.2004 118.018 31.2004 113.6V78.3997ZM137.816 116.8C135.488 116.8 133.6 118.687 133.6 121.015V129.687C133.6 132.015 135.488 133.902 137.816 133.902C140.144 133.902 142.031 132.015 142.031 129.687V121.015C142.031 118.687 140.144 116.8 137.816 116.8ZM136.8 121.015C136.8 120.454 137.255 120 137.816 120C138.376 120 138.831 120.454 138.831 121.015V129.687C138.831 130.248 138.376 130.702 137.816 130.702C137.255 130.702 136.8 130.248 136.8 129.687V121.015ZM104.8 54.3997C104.8 43.7958 113.397 35.1997 124 35.1997C134.604 35.1997 143.2 43.7958 143.2 54.3997C143.2 65.0036 134.604 73.5997 124 73.5997C113.397 73.5997 104.8 65.0036 104.8 54.3997ZM120 43.9997C120 41.7906 121.791 39.9997 124 39.9997C126.21 39.9997 128 41.7906 128 43.9997V53.5997C128 55.8088 126.21 57.5997 124 57.5997C121.791 57.5997 120 55.8088 120 53.5997V43.9997ZM124 43.1997C123.559 43.1997 123.2 43.5579 123.2 43.9997V53.5997C123.2 54.0415 123.559 54.3997 124 54.3997C124.442 54.3997 124.8 54.0415 124.8 53.5997V43.9997C124.8 43.5579 124.442 43.1997 124 43.1997ZM124 68.7997C121.791 68.7997 120 67.0088 120 64.7997C120 62.5906 121.791 60.7997 124 60.7997C126.21 60.7997 128 62.5906 128 64.7997C128 67.0088 126.21 68.7997 124 68.7997ZM123.2 64.7997C123.2 65.2415 123.559 65.5997 124 65.5997C124.442 65.5997 124.8 65.2415 124.8 64.7997C124.8 64.3579 124.442 63.9997 124 63.9997C123.559 63.9997 123.2 64.3579 123.2 64.7997ZM68.8004 92.7997C66.5913 92.7997 64.8004 94.5906 64.8004 96.7997C64.8004 99.0088 66.5913 100.8 68.8004 100.8H112C114.21 100.8 116 99.0089 116 96.7997C116 94.5906 114.21 92.7997 112 92.7997H68.8004ZM68.0004 96.7997C68.0004 96.3579 68.3586 95.9997 68.8004 95.9997H112C112.442 95.9997 112.8 96.3579 112.8 96.7997C112.8 97.2415 112.442 97.5997 112 97.5997H68.8004C68.3586 97.5997 68.0004 97.2415 68.0004 96.7997ZM48.0004 104C51.9768 104 55.2004 100.776 55.2004 96.7997C55.2004 92.8233 51.9768 89.5997 48.0004 89.5997C44.0239 89.5997 40.8004 92.8233 40.8004 96.7997C40.8004 100.776 44.0239 104 48.0004 104Z" fill="currentColor"/>
</g>
<defs>
<filter id="filter0_d_1111_146" x="0" y="27.1997" width="168" height="140.801" filterUnits="userSpaceOnUse" color-interpolation-filters="sRGB">
<feFlood flood-opacity="0" result="BackgroundImageFix"/>
<feColorMatrix in="SourceAlpha" type="matrix" values="0 0 0 0 0 0 0 0 0 0 0 0 0 0 0 0 0 0 127 0" result="hardAlpha"/>
<feOffset dy="4"/>
<feGaussianBlur stdDeviation="2"/>
<feComposite in2="hardAlpha" operator="out"/>
<feColorMatrix type="matrix" values="0 0 0 0 0 0 0 0 0 0 0 0 0 0 0 0 0 0 0.25 0"/>
<feBlend mode="normal" in2="BackgroundImageFix" result="effect1_dropShadow_1111_146"/>
<feBlend mode="normal" in="SourceGraphic" in2="effect1_dropShadow_1111_146" result="shape"/>
</filter>
</defs>
</svg>
