<svg  viewBox="0 0 20 20" fill="none" xmlns="http://www.w3.org/2000/svg">
<g id="clarity:eye-hide-line">
<path id="Vector" d="M13.9944 11.3329C14.1539 10.9066 14.2348 10.4548 14.2332 9.99959C14.2332 8.98882 13.8317 8.01945 13.117 7.30472C12.4023 6.59 11.4329 6.18848 10.4221 6.18848C9.97252 6.189 9.52661 6.2699 9.10547 6.42737L9.99991 7.34959C10.1359 7.32783 10.2733 7.31669 10.411 7.31625C11.1257 7.31476 11.812 7.59611 12.3199 8.09886C12.8279 8.60161 13.1163 9.28492 13.1221 9.99959C13.1217 10.1373 13.1105 10.2747 13.0888 10.4107L13.9944 11.3329Z" fill="currentColor"/>
<path id="Vector_2" d="M19.0496 9.73915C17.1774 6.27804 13.8941 4.18359 10.2607 4.18359C9.27147 4.18592 8.28887 4.34531 7.34961 4.65582L8.24405 5.55582C8.90286 5.38556 9.58028 5.29785 10.2607 5.2947C13.3885 5.2947 16.2329 7.03915 17.9274 9.97804C17.3058 11.0684 16.4818 12.03 15.4996 12.8114L16.2885 13.6003C17.4252 12.6832 18.3693 11.5504 19.0663 10.2669L19.2107 10.0003L19.0496 9.73915Z" fill="currentColor"/>
<path id="Vector_3" d="M2.7056 3.21157L5.18338 5.68934C3.61722 6.69774 2.33721 8.09255 1.46671 9.73934L1.32227 10.0005L1.46671 10.2671C3.33893 13.7282 6.62226 15.8227 10.2556 15.8227C11.6737 15.8224 13.0735 15.5014 14.35 14.8838L17.1278 17.6616L18.1 16.8282L3.6556 2.38379L2.7056 3.21157ZM8.12226 8.62823L11.8167 12.3227C11.3993 12.5811 10.9187 12.7195 10.4278 12.7227C10.0711 12.7227 9.71793 12.6522 9.38858 12.5151C9.05924 12.3781 8.76024 12.1774 8.50879 11.9244C8.25733 11.6714 8.05839 11.3711 7.92341 11.0409C7.78843 10.7108 7.72007 10.3572 7.72226 10.0005C7.72852 9.51521 7.86681 9.04083 8.12226 8.62823ZM7.31671 7.82268C6.79695 8.55568 6.55333 9.44895 6.62899 10.3443C6.70466 11.2397 7.09471 12.0795 7.7301 12.7148C8.36549 13.3502 9.20522 13.7403 10.1006 13.8159C10.996 13.8916 11.8893 13.648 12.6223 13.1282L13.5112 14.0171C12.4821 14.457 11.3747 14.6838 10.2556 14.6838C7.12782 14.6838 4.28338 12.9393 2.58893 10.0005C3.4021 8.56058 4.57322 7.35501 5.98893 6.50045L7.31671 7.82268Z" fill="currentColor"/>
</g>
</svg>